<?xml version="1.0" encoding="utf-8"?>
<!-- Generator: Adobe Illustrator 26.0.3, SVG Export Plug-In . SVG Version: 6.00 Build 0)  -->
<svg version="1.1" id="Слой_1" xmlns="http://www.w3.org/2000/svg" xmlns:xlink="http://www.w3.org/1999/xlink" x="0px" y="0px"
	 viewBox="0 0 1366 768" style="enable-background:new 0 0 1366 768;" xml:space="preserve">
<style type="text/css">
	.st0{fill-rule:evenodd;clip-rule:evenodd;fill:#3D58A0;}
</style>
<path class="st0" d="M259.4,243L76.5,313.7v141.4l182.9,70.8l182.9-70.8V313.7v0v0l0,0v0L259.4,243L259.4,243z M259.4,377.2V257.3
	L429,322.9v119.9L259.4,377.2L259.4,377.2z M246,386.4v37.5L89.9,445.9l104.8-79.4L246,386.4L246,386.4z M525.4,313.7v141.4H551
	v-65.3h5.9c20.4,0,27.9,12.4,33.6,29.6c3.5,10.7,6.4,26.1,11.8,35.7h27.7c-6.5-13.4-10.6-31.3-16-46.2
	c-6.4-17.9-15.1-31.3-35.7-35.1c26.9-15.5,37.2-37.2,51.2-60.2h-31.1c-6.3,15.9-26.3,57-47.4,57v-57H525.4L525.4,313.7z
	 M706.7,311.2c-39.9,0-67.4,30.6-67.4,74.3c0,41.3,25.2,72,65.3,72c38.8,0,67.6-27.1,67.6-74.5C772.2,342.5,747.9,311.2,706.7,311.2
	L706.7,311.2z M705.9,331.9c25.8,0,39,25.2,39,51.8c0,29.6-14.1,52.9-39,52.9c-24.8,0-39.2-22.9-39.2-51.8
	C666.7,355.7,680.3,331.9,705.9,331.9L705.9,331.9z M794.5,455.1h25.6v-53.5c3.6,0.8,7.8,1,12.6,1c18.3,0,34.2-5,44.7-15.3
	c7.8-7.5,12-18.5,12-31.9c0-13.2-5.5-24.3-13.9-31.3c-9-7.5-22.7-11.5-41.6-11.5c-17.2,0-30,1.3-39.5,2.9V455.1L794.5,455.1z
	 M820.1,333.8c2.7-0.6,7.8-1.2,14.9-1.2c17.8,0,28.8,8.2,28.8,23.9c0,16.4-11.8,26-31.1,26c-5.2,0-9.2-0.2-12.6-1.3V333.8
	L820.1,333.8z M897.5,313.7l47.4,97c1.3,2.9,1.7,4.8,0.4,7.6c-3.6,8-10.9,18-22.9,18c-4,0-6.7-0.2-9-0.9l-1.9,20.8
	c3.1,1.2,6.9,1.9,13.2,1.9c14.7,0,25.8-6.5,35.1-18.1c10.3-13.2,19.1-34.6,27.3-55.2l27.9-71.2h-27.3l-18.3,54.8
	c-3.6,11.1-6.1,19.9-8.2,26.5h-0.6c-3.1-8.4-6.3-16.8-10.1-26l-23.9-55.2H897.5L897.5,313.7z M1028.9,313.7v141.4h25.8v-62.3h59.8
	v62.3h25.8V313.7h-25.8v56.7h-59.8v-56.7H1028.9L1028.9,313.7z M1188.7,313.7v36.9c0,20.4-1.7,37.6-6.1,52.7
	c-3.1,11.1-8.2,21.4-13.6,31.3l-11.3,0.6v55h21l1.5-35.1h85.8l1.5,35.1h21.2v-55l-13.4-0.6V313.7H1188.7L1188.7,313.7z
	 M1212.6,334.9h36.7V434h-54c3.8-6.9,7.8-16,10.5-25.2c4.6-14.9,6.7-32.3,6.7-51.6V334.9z"/>
</svg>
