<?xml version="1.0" encoding="utf-8"?>
<!-- Generator: Adobe Illustrator 26.0.3, SVG Export Plug-In . SVG Version: 6.00 Build 0)  -->
<svg version="1.1" id="Слой_1" xmlns="http://www.w3.org/2000/svg" xmlns:xlink="http://www.w3.org/1999/xlink" x="0px" y="0px"
	 viewBox="0 0 1366 768" style="enable-background:new 0 0 1366 768;" xml:space="preserve">
<style type="text/css">
	.st0{fill:#ED1C24;}
</style>
<g>
	<g>
		<path class="st0" d="M600,470.2h-1.7v-5.8h1.7V470.2z M600,458.5h-1.7v-5.9h1.7V458.5z M600,446.8h-1.7v-5.9h1.7V446.8z
			 M600,435.1h-1.7v-5.8h1.7V435.1z M600,423.4h-1.7v-5.9h1.7V423.4z M600,411.7h-1.7v-5.9h1.7V411.7z M600,400h-1.7v-5.9h1.7V400z
			 M600,388.3h-1.7v-5.8h1.7V388.3z M600,376.6h-1.7v-5.9h1.7V376.6z M600,364.9h-1.7V359h1.7V364.9z M600,353.2h-1.7v-5.8h1.7
			V353.2z M600,341.5h-1.7v-5.8h1.7V341.5z M600,329.8h-1.7v-5.9h1.7V329.8z M600,318.1h-1.7v-5.9h1.7V318.1z M600,306.4h-1.7v-5.8
			h1.7V306.4z M600,294.7h-1.7v-5.8h1.7V294.7z"/>
	</g>
	<g>
		<path class="st0" d="M670.7,326.5h-17.4v37.1h-8.8v-45h26.2V326.5z"/>
		<path class="st0" d="M666.1,331.6h6.1l1,3.9h0.3c1.1-1.6,2.4-2.8,4-3.6c1.5-0.8,3.4-1.2,5.6-1.2c4,0,7,1.3,9.1,3.8
			c2,2.6,3,6.7,3,12.3c0,2.7-0.3,5.2-1,7.4c-0.6,2.2-1.6,4.1-2.9,5.6c-1.3,1.5-2.8,2.7-4.6,3.5c-1.8,0.8-3.9,1.2-6.3,1.2
			c-1.3,0-2.4-0.1-3.3-0.3c-0.9-0.2-1.7-0.5-2.6-0.9v13.2h-8.4V331.6z M680.4,337.7c-1.6,0-2.9,0.4-3.8,1.2c-0.9,0.8-1.6,2-2.2,3.7
			V356c0.6,0.5,1.3,0.8,2,1.1c0.7,0.3,1.6,0.4,2.8,0.4c2.4,0,4.2-0.8,5.4-2.5c1.2-1.7,1.8-4.5,1.8-8.4c0-2.8-0.5-5-1.4-6.6
			C684.1,338.5,682.5,337.7,680.4,337.7z"/>
		<path class="st0" d="M711.7,349.6l1.2,5h0.4l0.8-5.1l4.9-18h8.6l-9.8,29c-0.8,2.4-1.6,4.6-2.3,6.6c-0.8,2-1.6,3.7-2.5,5.2
			c-0.9,1.5-1.9,2.6-3,3.4c-1.1,0.8-2.4,1.2-3.9,1.2c-2.2,0-4-0.4-5.3-1.1l1.5-6.7c0.6,0.3,1.3,0.4,1.9,0.4c1,0,1.9-0.4,2.9-1.3
			c0.9-0.8,1.6-2.3,2.1-4.5l-13.4-32.1h10L711.7,349.6z"/>
		<path class="st0" d="M749.3,338.9h-10.2v24.7h-8.4v-32.1h26.9v32.1h-8.4V338.9z"/>
		<path class="st0" d="M783.4,338.9h-10.2v24.7h-8.4v-32.1h26.9v32.1h-8.4V338.9z"/>
		<path class="st0" d="M798.9,333.4c1.7-0.8,3.7-1.4,6.1-1.8c2.4-0.4,4.8-0.7,7.4-0.7c2.2,0,4.1,0.3,5.6,0.8
			c1.5,0.5,2.7,1.3,3.6,2.3c0.9,1,1.5,2.2,1.9,3.5c0.4,1.4,0.5,2.9,0.5,4.6c0,1.9-0.1,3.8-0.2,5.7c-0.1,1.9-0.2,3.8-0.2,5.6
			c0,1.8,0,3.6,0.2,5.4c0.1,1.7,0.4,3.4,1,4.9h-6.8l-1.3-4.4h-0.3c-0.9,1.3-2,2.5-3.6,3.4c-1.5,1-3.5,1.4-5.9,1.4
			c-1.5,0-2.8-0.2-4-0.7c-1.2-0.4-2.2-1.1-3.1-1.9c-0.9-0.8-1.5-1.8-2-3c-0.5-1.1-0.7-2.4-0.7-3.8c0-2,0.4-3.6,1.3-5
			c0.9-1.3,2.1-2.4,3.8-3.3c1.6-0.8,3.6-1.4,5.9-1.7c2.3-0.3,4.9-0.4,7.7-0.3c0.3-2.4,0.1-4.1-0.5-5.2c-0.6-1-2.1-1.6-4.3-1.6
			c-1.7,0-3.4,0.2-5.3,0.5c-1.9,0.3-3.4,0.8-4.6,1.3L798.9,333.4z M809.5,357.3c1.7,0,3-0.4,4-1.1c1-0.7,1.7-1.6,2.2-2.4v-4.2
			c-1.3-0.1-2.6-0.1-3.8-0.1c-1.2,0.1-2.3,0.3-3.2,0.6c-0.9,0.3-1.7,0.7-2.2,1.3c-0.6,0.6-0.8,1.3-0.8,2.1c0,1.2,0.4,2.1,1.1,2.8
			C807.3,357,808.3,357.3,809.5,357.3z"/>
		<path class="st0" d="M857.9,350.4h-2.2v13.3h-8.4v-32.1h8.4v13.7l2-0.9l7.5-12.8h8.9l-7.8,12.2l-3.3,2.4l3.6,2.5l8.7,15h-9.6
			L857.9,350.4z"/>
		<path class="st0" d="M876.3,347.6c0-5.4,1.3-9.6,4-12.6c2.7-2.9,6.4-4.4,11.2-4.4c2.6,0,4.8,0.4,6.7,1.2c1.9,0.8,3.4,2,4.7,3.4
			c1.2,1.5,2.2,3.3,2.8,5.4c0.6,2.1,0.9,4.4,0.9,6.9c0,5.4-1.3,9.6-4,12.6c-2.6,2.9-6.4,4.4-11.2,4.4c-2.6,0-4.8-0.4-6.7-1.2
			c-1.9-0.8-3.5-2-4.7-3.4c-1.3-1.5-2.2-3.3-2.8-5.4C876.6,352.5,876.3,350.2,876.3,347.6z M884.9,347.6c0,1.4,0.1,2.7,0.4,3.9
			c0.3,1.2,0.6,2.2,1.2,3.1c0.5,0.9,1.2,1.6,2,2.1c0.8,0.5,1.8,0.7,3,0.7c2.2,0,3.8-0.8,4.9-2.4c1.1-1.6,1.6-4.1,1.6-7.5
			c0-3-0.5-5.3-1.5-7.2c-1-1.8-2.7-2.7-5-2.7c-2.1,0-3.7,0.8-4.8,2.3C885.5,341.6,884.9,344.1,884.9,347.6z"/>
		<path class="st0" d="M939.9,349l0.5-6.7h-0.3l-2.6,5.5l-6,10h-3l-6.6-10l-2.4-5.5H919l0.8,6.6v14.8h-7.5v-32.1h8.7l7.4,12.1
			l1.8,4.1h0.3l1.9-4.2l6.8-12h8.7v32.1h-8V349z"/>
		<path class="st0" d="M973.7,338.9h-10.2v24.7h-8.4v-32.1H982v32.1h-8.4V338.9z"/>
		<path class="st0" d="M989.2,333.4c1.7-0.8,3.7-1.4,6.1-1.8c2.4-0.4,4.8-0.7,7.4-0.7c2.2,0,4.1,0.3,5.6,0.8
			c1.5,0.5,2.7,1.3,3.6,2.3c0.9,1,1.5,2.2,1.9,3.5c0.4,1.4,0.5,2.9,0.5,4.6c0,1.9-0.1,3.8-0.2,5.7c-0.1,1.9-0.2,3.8-0.2,5.6
			c0,1.8,0,3.6,0.2,5.4c0.1,1.7,0.4,3.4,1,4.9h-6.8l-1.3-4.4h-0.3c-0.9,1.3-2,2.5-3.6,3.4c-1.5,1-3.5,1.4-5.9,1.4
			c-1.5,0-2.8-0.2-4-0.7c-1.2-0.4-2.2-1.1-3.1-1.9c-0.9-0.8-1.5-1.8-2-3c-0.5-1.1-0.7-2.4-0.7-3.8c0-2,0.4-3.6,1.3-5
			c0.9-1.3,2.1-2.4,3.8-3.3c1.6-0.8,3.6-1.4,5.9-1.7c2.3-0.3,4.9-0.4,7.7-0.3c0.3-2.4,0.1-4.1-0.5-5.2c-0.6-1-2.1-1.6-4.3-1.6
			c-1.7,0-3.4,0.2-5.3,0.5c-1.9,0.3-3.4,0.8-4.6,1.3L989.2,333.4z M999.8,357.3c1.7,0,3-0.4,4-1.1c1-0.7,1.7-1.6,2.2-2.4v-4.2
			c-1.3-0.1-2.6-0.1-3.8-0.1c-1.2,0.1-2.3,0.3-3.2,0.6c-0.9,0.3-1.7,0.7-2.2,1.3c-0.6,0.6-0.8,1.3-0.8,2.1c0,1.2,0.4,2.1,1.1,2.8
			C997.5,357,998.5,357.3,999.8,357.3z"/>
		<path class="st0" d="M1040.1,351h-10.5v12.7h-8.4v-32.1h8.4v12.1h10.5v-12.1h8.4v32.1h-8.4V351z"/>
		<path class="st0" d="M1075.1,349l0.3-4.6h-0.2l-2.8,4.7l-11.4,14.5h-5.3v-32.1h8.4v15.3l-0.4,4.4h0.3l2.6-4.6l11.6-15.1h5.3v32.1
			h-8.4V349z"/>
		<path class="st0" d="M1110.1,349l0.3-4.6h-0.2l-2.8,4.7l-11.4,14.5h-5.3v-32.1h8.4v15.3l-0.4,4.4h0.3l2.6-4.6l11.6-15.1h5.3v32.1
			h-8.4V349z M1101.2,318.5c0.3,1.7,0.8,2.8,1.5,3.5c0.7,0.7,1.6,1,2.7,1c1.2,0,2.2-0.3,2.9-1c0.7-0.7,1.2-1.8,1.4-3.5l6.4,1.6
			c-0.5,2.8-1.8,4.9-3.8,6.2c-2,1.3-4.4,2-7.1,2c-1.3,0-2.6-0.1-3.9-0.4c-1.2-0.3-2.4-0.8-3.3-1.4c-1-0.7-1.8-1.5-2.5-2.5
			c-0.7-1-1.2-2.3-1.4-3.8L1101.2,318.5z"/>
		<path class="st0" d="M642.5,424.1l10.3-14.7l5.1,4l-5.6,8.1l-3.1,2.6l3.1,2.3l6,8l-5.1,4L642.5,424.1z M655,424l9.9-13.8l4.6,3.6
			l-5.2,7.8l-3,2.5l3,2.3l5.6,7.8l-4.6,3.6L655,424z"/>
		<path class="st0" d="M687,421.6h-2.3v19.2h-8.8v-45h8.8v19.9l2.1-0.9l12.4-19h10L696,414.7l-3.5,2.4l3.6,2.5l15,21.1h-10.9
			L687,421.6z"/>
		<path class="st0" d="M711.9,424.7c0-5.4,1.3-9.6,4-12.6c2.7-2.9,6.4-4.4,11.2-4.4c2.6,0,4.8,0.4,6.7,1.2c1.9,0.8,3.4,2,4.7,3.4
			c1.2,1.5,2.2,3.3,2.8,5.4c0.6,2.1,0.9,4.4,0.9,6.9c0,5.4-1.3,9.6-4,12.6c-2.6,2.9-6.4,4.4-11.2,4.4c-2.6,0-4.8-0.4-6.7-1.2
			c-1.9-0.8-3.5-2-4.7-3.4c-1.3-1.5-2.2-3.3-2.8-5.4C712.2,429.6,711.9,427.3,711.9,424.7z M720.5,424.7c0,1.4,0.1,2.7,0.4,3.9
			c0.3,1.2,0.6,2.2,1.2,3.1c0.5,0.9,1.2,1.6,2,2.1c0.8,0.5,1.8,0.7,3,0.7c2.2,0,3.8-0.8,4.9-2.4c1.1-1.6,1.6-4.1,1.6-7.5
			c0-3-0.5-5.3-1.5-7.2c-1-1.8-2.7-2.7-5-2.7c-2.1,0-3.7,0.8-4.8,2.3C721,418.7,720.5,421.2,720.5,424.7z"/>
		<path class="st0" d="M747.9,408.7h6.1l1,3.9h0.3c1.1-1.6,2.4-2.8,4-3.6c1.5-0.8,3.4-1.2,5.6-1.2c4,0,7,1.3,9.1,3.8
			c2,2.6,3,6.7,3,12.3c0,2.7-0.3,5.2-1,7.4c-0.6,2.2-1.6,4.1-2.9,5.6c-1.3,1.5-2.8,2.7-4.6,3.5c-1.8,0.8-3.9,1.2-6.3,1.2
			c-1.3,0-2.4-0.1-3.3-0.3c-0.9-0.2-1.7-0.5-2.6-0.9v13.2h-8.4V408.7z M762.2,414.8c-1.6,0-2.9,0.4-3.8,1.2c-0.9,0.8-1.6,2-2.2,3.7
			v13.4c0.6,0.5,1.3,0.8,2,1.1c0.7,0.3,1.6,0.4,2.8,0.4c2.4,0,4.2-0.8,5.4-2.5c1.2-1.7,1.8-4.5,1.8-8.4c0-2.8-0.5-5-1.4-6.6
			C765.9,415.6,764.3,414.8,762.2,414.8z"/>
		<path class="st0" d="M793.5,426.7l1.2,5h0.4l0.8-5.1l4.9-18h8.6l-9.8,29c-0.8,2.4-1.6,4.6-2.3,6.6c-0.8,2-1.6,3.7-2.5,5.2
			c-0.9,1.5-1.9,2.6-3,3.4c-1.1,0.8-2.4,1.2-3.9,1.2c-2.2,0-4-0.4-5.3-1.1l1.5-6.7c0.6,0.3,1.3,0.4,1.9,0.4c1,0,1.9-0.4,2.9-1.3
			c0.9-0.8,1.6-2.3,2.1-4.5l-13.4-32.1h10L793.5,426.7z"/>
		<path class="st0" d="M831.4,428.2h-10.5v12.7h-8.4v-32.1h8.4v12.1h10.5v-12.1h8.4v32.1h-8.4V428.2z"/>
		<path class="st0" d="M879,448.1h-6.1l-1-7.3h-21.6l-1,7.3h-6.1v-14.7h3.8c0.3-0.5,0.8-1.3,1.3-2.4c0.5-1.1,1.1-2.7,1.6-4.7
			c0.5-2,1-4.4,1.4-7.3c0.4-2.9,0.6-6.4,0.6-10.3h22.4v24.7h4.7V448.1z M866,433.8v-18.1h-6.7c-0.1,1.5-0.2,3.2-0.4,4.9
			c-0.2,1.7-0.5,3.4-0.8,5c-0.3,1.6-0.7,3.1-1.1,4.6c-0.4,1.4-0.9,2.6-1.4,3.5H866z"/>
		<path class="st0" d="M896.9,423.7l-9.8,13.9l-4.6-3.6l5.3-7.9l2.9-2.5l-2.9-2.2l-5.6-7.8l4.5-3.6L896.9,423.7z M909.4,423.6
			l-10.3,14.8l-5.1-4l5.6-8.1l3.1-2.6l-3.1-2.3l-6-7.9l5.1-4L909.4,423.6z"/>
	</g>
	<path class="st0" d="M479.2,360.2h41.2c10.9,0,19.7-8.5,19.7-19c0-11-8.5-19.7-19.5-19.8c-4-7.5-11.5-12.1-20.2-12.1
		c-9.4,0-18,5.2-22,13.3c0.2,0,0.5,0,0.7,0c3.6,0,6.9,0.8,9.9,2.3c2.6-3.3,6.8-5.4,11.4-5.4c5.4,0,10.1,3.4,11.9,8.7l1.2,3.4h6.8
		c5.3,0,9.4,4.2,9.4,9.6c0,4.9-4.1,8.8-9.4,8.8h-41.2c-3,0-5.3-2.1-5.3-4.8c0-2.7,2-5.6,5.3-5.6c3,0,5.2,2.4,5.2,5.6h10.3
		c0-8.9-6.8-15.8-15.5-15.8c-8.6,0-15.6,7.1-15.6,15.8C463.6,353.4,470.6,360.2,479.2,360.2 M356.9,418.2c3.8,2,9.2,4,11,4.6
		c5.9,1.8,13.2,2.9,19.7,3.4c2.2,0.2,9.9,0.2,12.1,0.3h140.3V409H400c-1.6,0-8.7-0.1-10.3-0.2c-5.3-0.4-11.4-1.3-16.2-2.7
		c-0.9-0.3-4.6-1.6-5.6-2c-16.8-7.7-28.4-24.5-28.4-44c0-26.8,21.9-48.6,48.9-48.6c26.8,0,48.6,21.4,48.9,47.9H455
		c-0.4-36.1-30.1-65.4-66.6-65.4c-36.7,0-66.6,29.6-66.6,66.1C321.8,385.2,336,407,356.9,418.2 M284.2,426.4v-106h-36.7v17h19.6v89
		H284.2z M293.1,426.4h17.8V293.9h-43.8v17.7h26V426.4z M540.1,398.2v-16.9H400c-1.3,0-8,0-9.2-0.2c-2.1-0.2-5.2-0.5-7.1-0.9
		c-2.2-0.6-4.3-1.4-5.2-1.9c-6.6-3.5-11-10.4-11-18.4c0-11.6,9.4-20.9,21.1-20.9c11.4,0,20.7,9,21,20.2h17
		c-0.3-20.5-17.2-37.1-38-37.1c-21,0-38.1,16.9-38.1,37.8c0,14.7,8.5,27.4,20.9,33.6c1.9,1.1,5.5,2.3,6.5,2.5
		c3.5,0.9,8.2,1.5,12,1.8c1.4,0.1,8.3,0.2,9.8,0.2v0H540.1z M282.2,453.9c-0.8-0.7-1.7-1.2-2.7-1.6c-1.1-0.3-2.3-0.5-3.6-0.5
		c-0.6,0-1.1,0-1.7,0.1c-0.6,0.1-1.1,0.2-1.5,0.3v-6.4h10.2v-4.9h-15.5v29.4c0.5,0.1,1.1,0.3,1.8,0.3c0.7,0.1,1.4,0.1,2.1,0.2
		c0.7,0,1.4,0.1,2,0.1c0.6,0,1.1,0,1.5,0c3.3,0,5.7-0.8,7.4-2.5c1.7-1.7,2.5-4.2,2.5-7.5c0-1.7-0.2-3.1-0.6-4.2
		C283.6,455.5,283,454.6,282.2,453.9 M278,465.1c-0.7,0.7-1.7,1.1-2.8,1.1c-0.4,0-0.9,0-1.4-0.1c-0.5,0-0.8-0.1-1.1-0.1v-9.1
		c0.2-0.1,0.5-0.1,0.9-0.2c0.5-0.1,0.8-0.1,1.2-0.1c0.6,0,1.2,0.1,1.7,0.2c0.5,0.1,1,0.3,1.3,0.7c0.4,0.3,0.7,0.8,0.9,1.4
		c0.2,0.6,0.3,1.5,0.3,2.5C279,463.1,278.7,464.3,278,465.1 M296.5,449.3l-2.4,11.9l-0.4,3.3h-0.2l-0.5-3.3l-3-11.9h-6l7.3,21.2
		c-0.2,0.9-0.4,1.7-0.6,2.3c-0.3,0.6-0.5,1-0.9,1.3c-0.3,0.3-0.7,0.4-1.1,0.4c-0.4,0-0.8-0.1-1.1-0.2l-0.8,4.3
		c0.4,0.2,0.9,0.4,1.4,0.5c0.5,0.1,1.1,0.1,1.7,0.1c0.8,0,1.6-0.2,2.2-0.7c0.6-0.5,1.1-1.2,1.6-2.1c0.5-0.9,0.9-2.1,1.4-3.4
		c0.4-1.3,0.9-2.8,1.4-4.5l5.3-19.1H296.5z M319.3,449.3h-5.4l-2.2,5l-0.9,2.7l-0.8-2.7l-2.2-5H302l5,10.3l-5.4,10.8h5.4l2.6-5.5
		l1-3l0.9,3l2.6,5.5h5.7l-5.4-11L319.3,449.3z M342,444.4c-0.8-1.3-1.9-2.4-3.2-3.1c-1.3-0.7-2.9-1.1-4.7-1.1
		c-3.5,0-6.1,1.3-7.8,3.9c-1.7,2.6-2.6,6.5-2.6,11.5c0,2.3,0.2,4.5,0.6,6.4c0.4,1.9,1,3.5,1.9,4.9c0.8,1.3,1.9,2.4,3.2,3.1
		c1.3,0.7,2.9,1.1,4.7,1.1c3.5,0,6.1-1.3,7.8-3.9c1.8-2.6,2.6-6.5,2.6-11.5c0-2.3-0.2-4.5-0.6-6.4
		C343.5,447.4,342.9,445.8,342,444.4 M337.7,463.7c-0.8,1.7-2,2.5-3.7,2.5c-0.9,0-1.7-0.3-2.3-0.8c-0.6-0.5-1.1-1.3-1.5-2.2
		c-0.4-0.9-0.7-2-0.8-3.3c-0.2-1.3-0.3-2.7-0.3-4.2c0-7,1.6-10.5,4.9-10.5c0.9,0,1.7,0.3,2.3,0.8c0.6,0.5,1.1,1.3,1.5,2.2
		c0.4,0.9,0.7,2.1,0.8,3.3c0.2,1.3,0.3,2.6,0.3,4.1C338.9,459.3,338.5,462,337.7,463.7 M355.8,450.1c-1.3,0-2.4,0.3-3.3,0.8
		c-0.9,0.5-1.7,1.4-2.3,2.6h-0.1c0.1-1.4,0.4-2.5,0.7-3.4c0.3-0.9,0.7-1.6,1.1-2.1c0.5-0.5,1-0.9,1.7-1.1c0.7-0.2,1.4-0.4,2.3-0.5
		c1.4-0.1,2.6-0.3,3.5-0.5c0.9-0.2,1.6-0.6,2-1l-0.1-4.7c-0.4,0.5-1.1,0.8-2,1c-0.9,0.2-2,0.4-3.2,0.5c-0.9,0.1-1.8,0.3-2.7,0.4
		c-0.8,0.2-1.6,0.5-2.4,0.9c-0.7,0.4-1.4,1-2,1.7c-0.6,0.7-1.1,1.7-1.6,2.8c-0.4,1.2-0.8,2.6-1,4.4c-0.2,1.7-0.4,3.8-0.4,6.2
		c0,2.4,0.2,4.4,0.5,6.1c0.4,1.7,0.9,3.1,1.6,4.2c0.7,1.1,1.6,1.9,2.7,2.4c1.1,0.5,2.3,0.8,3.6,0.8c2.6,0,4.7-1,6.1-2.9
		c1.4-1.9,2.1-4.8,2.1-8.8c0-3.4-0.6-5.9-1.9-7.4C359.6,450.9,357.9,450.1,355.8,450.1 M356.8,465.5c-0.5,1-1.3,1.5-2.4,1.5
		c-1.1,0-1.9-0.6-2.4-1.7c-0.5-1.1-0.8-2.7-0.8-4.7c0-1.9,0.3-3.4,0.8-4.4c0.5-1,1.4-1.5,2.5-1.5c1.1,0,1.8,0.5,2.3,1.5
		c0.5,1,0.7,2.5,0.7,4.4C357.6,462.8,357.3,464.5,356.8,465.5 M374.9,466.2c-0.5,0.2-1.1,0.3-1.8,0.3c-1.3,0-2.3-0.6-2.9-1.8
		c-0.6-1.2-0.9-2.8-0.9-4.7c0-2.3,0.3-3.9,0.9-5c0.6-1,1.5-1.5,2.7-1.5c0.6,0,1.2,0.1,1.7,0.2c0.5,0.1,0.9,0.3,1.5,0.6l1.2-4.2
		c-0.6-0.3-1.3-0.6-2.1-0.8c-0.8-0.2-1.8-0.3-3.1-0.3c-2.6,0-4.5,0.9-5.8,2.8c-1.3,1.9-2,4.6-2,8.3c0,1.7,0.1,3.2,0.4,4.6
		c0.3,1.4,0.7,2.5,1.3,3.5c0.6,1,1.4,1.7,2.4,2.2c1,0.5,2.2,0.8,3.6,0.8c1,0,2-0.1,3-0.4c1-0.3,1.8-0.7,2.5-1.3l-1.1-3.9
		C375.9,465.7,375.4,466,374.9,466.2 M381.6,458.5c-0.2,2.3-0.4,4-0.7,5.1c-0.3,1.1-0.7,1.8-1.2,2.1c-0.5,0.3-1,0.3-1.7,0l-0.6,4.4
		c0.4,0.2,0.8,0.4,1.3,0.5c0.5,0.1,1.1,0.1,1.8,0.1c1.2,0,2.1-0.4,2.8-1.2c0.7-0.8,1.3-2,1.7-3.5c0.4-1.5,0.7-3.2,0.9-5.3
		c0.2-2.1,0.3-4.3,0.5-6.8h3v16.6h5v-21.2H382C381.9,453.2,381.8,456.2,381.6,458.5 M405.7,461.2l-0.4,3.3h-0.2l-0.5-3.3l-3-11.9h-6
		l7.3,21.2c-0.2,0.9-0.4,1.7-0.6,2.3c-0.3,0.6-0.5,1-0.9,1.3c-0.3,0.3-0.7,0.4-1.1,0.4c-0.4,0-0.8-0.1-1.1-0.2l-0.8,4.3
		c0.4,0.2,0.9,0.4,1.4,0.5c0.5,0.1,1.1,0.1,1.7,0.1c0.8,0,1.6-0.2,2.2-0.7c0.6-0.5,1.1-1.2,1.6-2.1c0.5-0.9,0.9-2.1,1.4-3.4
		c0.4-1.3,0.9-2.8,1.3-4.5l5.3-19.1h-5.1L405.7,461.2z M432.8,459.3l1.4-1.4l3.5-8.6h-5.3l-2.8,8.4l-1.3,0.6v-9h-4.8v8.6H422
		l-2.8-8.6h-5.3l3.3,8.6l1.8,1.6l-1.2,1.3l-4.2,9.7h5.6l3.1-8.6l1.3-0.6v9.2h4.8v-8.8h1.4l3.1,8.8h5.7l-3.9-9.5L432.8,459.3z
		 M446.4,458.7l-1.5,3.5h-0.1l0.4-3.3v-9.6h-5v21.2h3.4l5.7-9.1l1.6-3.6h0.1l-0.4,3.4v9.2h5v-21.2h-3.4L446.4,458.7z M469.2,459.4
		v-0.2c1-0.4,1.7-1.1,2.2-2c0.5-0.9,0.7-1.9,0.7-2.9c0-1.8-0.5-3.1-1.6-4c-1.1-0.9-3-1.3-5.6-1.3c-1.3,0-2.6,0-3.8,0.1
		c-1.2,0.1-2.2,0.2-3,0.2v21.1c0.8,0.1,1.8,0.2,2.9,0.3c1.2,0.1,2.2,0.1,3.2,0.1c3,0,5.2-0.5,6.6-1.6c1.4-1,2-2.6,2-4.7
		C472.8,461.8,471.6,460.1,469.2,459.4 M462.8,453.4c0.2,0,0.5,0,0.8-0.1c0.3,0,0.7,0,1.2,0c1,0,1.6,0.2,2,0.6
		c0.4,0.4,0.5,1,0.5,1.8c0,0.7-0.2,1.2-0.7,1.7c-0.4,0.4-1,0.6-1.7,0.6h-2.1V453.4z M467,465.8c-0.5,0.4-1.3,0.6-2.4,0.6
		c-0.4,0-0.7,0-0.9,0c-0.3,0-0.5-0.1-0.8-0.1v-5h2.1c1,0,1.8,0.2,2.2,0.7c0.4,0.5,0.6,1.1,0.6,1.8
		C467.7,464.7,467.5,465.4,467,465.8 M488.6,463.7c0-1.2,0.1-2.5,0.1-3.8c0.1-1.3,0.1-2.6,0.1-3.9c0-2.3-0.5-4.1-1.4-5.3
		c-0.9-1.2-2.6-1.9-5-1.9c-1.6,0-3,0.2-4.3,0.5c-1.3,0.3-2.3,0.7-3.2,1.2l1.3,3.8c0.7-0.4,1.5-0.7,2.4-0.8c0.9-0.2,1.8-0.3,2.6-0.3
		c1.2,0,1.9,0.4,2.3,1.1c0.3,0.7,0.5,1.9,0.3,3.6c-3.1-0.2-5.5,0.3-7.3,1.4c-1.8,1.1-2.7,2.9-2.7,5.4c0,1.9,0.5,3.4,1.4,4.5
		c1,1.1,2.3,1.7,3.9,1.7c1.2,0,2.3-0.3,3.1-0.8c0.8-0.5,1.4-1.2,1.9-2h0.2l0.8,2.6h4.1c-0.3-1-0.5-2.1-0.6-3.2
		C488.6,466.2,488.6,465,488.6,463.7 M483.9,464.7c-0.2,0.5-0.6,0.9-1.1,1.2c-0.5,0.4-1.1,0.6-1.9,0.6c-0.6,0-1.1-0.2-1.5-0.7
		c-0.3-0.4-0.5-1.1-0.5-2c0-0.6,0.1-1.1,0.4-1.5c0.3-0.4,0.6-0.7,1.1-0.9c0.4-0.2,1-0.3,1.6-0.4c0.6-0.1,1.2,0,1.9,0V464.7z
		 M501.3,457.5h-5.1v-8.1h-5v21.2h5v-8.4h5.1v8.4h5v-21.2h-5V457.5z M514.8,458.7l-1.5,3.5h-0.1l0.4-3.3v-9.6h-5v21.2h3.4l5.7-9.1
		l1.6-3.6h0.1l-0.4,3.4v9.2h5v-21.2h-3.4L514.8,458.7z M540.6,453c-0.4-1.1-0.9-1.9-1.6-2.5c-0.7-0.6-1.4-1.1-2.3-1.4
		c-0.8-0.3-1.7-0.4-2.6-0.4c-2.7,0-4.8,0.9-6.3,2.7c-1.5,1.8-2.3,4.6-2.3,8.4c0,1.8,0.2,3.3,0.5,4.7c0.3,1.4,0.8,2.5,1.5,3.5
		c0.7,1,1.5,1.7,2.6,2.2c1.1,0.5,2.3,0.8,3.8,0.8c1.3,0,2.6-0.2,3.8-0.6c1.2-0.4,2.2-0.9,2.9-1.5l-1.6-3.5c-0.4,0.3-1,0.6-1.7,0.9
		c-0.8,0.3-1.6,0.4-2.5,0.4c-1.5,0-2.6-0.5-3.3-1.4c-0.7-0.9-1-2.3-1.1-4h10.3c0.1-0.8,0.2-1.6,0.3-2.3c0.1-0.7,0.1-1.4,0.1-2
		C541.2,455.4,541,454.1,540.6,453 M536.5,458h-5.9c0.1-1.6,0.4-2.8,0.9-3.6c0.5-0.9,1.4-1.3,2.4-1.3c0.9,0,1.6,0.4,2,1.2
		C536.4,455.1,536.6,456.4,536.5,458"/>
</g>
</svg>
