<?xml version="1.0" encoding="utf-8"?>
<!-- Generator: Adobe Illustrator 26.0.3, SVG Export Plug-In . SVG Version: 6.00 Build 0)  -->
<svg version="1.1" id="Слой_1" xmlns="http://www.w3.org/2000/svg" xmlns:xlink="http://www.w3.org/1999/xlink" x="0px" y="0px"
	 viewBox="0 0 1366 768" style="enable-background:new 0 0 1366 768;" xml:space="preserve">
<style type="text/css">
	.st0{fill-rule:evenodd;clip-rule:evenodd;fill:#ED1C24;}
</style>
<path class="st0" d="M498.7,246.4h-87.9V283h51.3l0.3,238.7h36.3V246.4L498.7,246.4z M858.9,281v1.2l0.1,1.2l0.2,1.2l0.2,1.2
	l0.3,1.1l0.3,1.1l0.4,1.1l0.4,1.1l0.5,1.1l0.5,1l0.6,1l0.6,0.9l0.7,0.9l0.7,0.9l0.7,0.9l0.8,0.8l0.8,0.8l0.9,0.7l0.9,0.7l0.9,0.7
	l1,0.6l1,0.6l1,0.5l1,0.5l1.1,0.4l1.1,0.4l1.1,0.3l1.2,0.3l1.1,0.2l1.2,0.2l1.2,0.1h1.2h1.3l1.2-0.1l1.2-0.2l1.2-0.2l1.2-0.3
	l1.1-0.3l1.1-0.4l1.1-0.4l1.1-0.5l1-0.5l1-0.6l1-0.6l0.9-0.7l0.9-0.7l0.9-0.7l0.8-0.8l0.8-0.8l0.7-0.9l0.7-0.9l0.6-0.9l0.6-0.9
	l0.6-1l0.5-1l0.5-1.1l0.4-1.1l0.4-1.1l0.3-1.1l0.3-1.1l0.2-1.2l0.2-1.2l0.1-1.2l0-1.2l0-1.3l-0.1-1.2l-0.2-1.2l-0.2-1.1l-0.3-1.1
	l-0.3-1.1l-0.4-1.1l-0.4-1.1l-0.5-1l-0.5-1l-0.6-1l-0.6-1l-0.6-0.9l-0.7-0.9l-0.7-0.8l-0.8-0.8l-0.8-0.8l-0.9-0.7l-0.9-0.7l-0.9-0.6
	l-1-0.6l-1-0.6l-1-0.5l-1.1-0.4l-1.1-0.4l-1.1-0.4l-1.1-0.3l-1.2-0.3l-1.2-0.2l-1.2-0.1l-1.2-0.1h-1.3h-1.2l-1.2,0.1l-1.2,0.1
	l-1.1,0.2l-1.2,0.3l-1.1,0.3l-1.1,0.4l-1.1,0.4l-1,0.4l-1,0.5l-1,0.6l-1,0.6l-0.9,0.6l-0.9,0.7l-0.9,0.7l-0.8,0.8l-0.8,0.8l-0.7,0.8
	l-0.7,0.9l-0.7,0.9l-0.6,1l-0.6,1l-0.5,1l-0.5,1l-0.4,1.1l-0.4,1.1l-0.3,1.1l-0.3,1.1l-0.2,1.1l-0.2,1.2l-0.1,1.2V281L858.9,281z
	 M863.6,281l0-1l0.1-1l0.1-1l0.2-1l0.2-1l0.3-0.9l0.3-0.9l0.3-0.9l0.4-0.9l0.4-0.9l0.4-0.9l0.5-0.8l0.5-0.8l0.6-0.8l0.6-0.7l0.7-0.7
	l0.7-0.7l0.7-0.6l0.7-0.6l0.7-0.5l0.8-0.5l0.8-0.5l0.9-0.4l0.8-0.4l0.9-0.3l0.9-0.3l0.9-0.3l0.9-0.2l1-0.1l1-0.1l1,0l1-0.1l1,0.1
	l1,0l1,0.1l0.9,0.1l0.9,0.2l0.9,0.3l0.9,0.3l0.9,0.3l0.9,0.4l0.8,0.4l0.8,0.5l0.8,0.5l0.8,0.5l0.7,0.6l0.7,0.6l0.6,0.7l0.7,0.7
	l0.6,0.7l0.6,0.8l0.5,0.8l0.5,0.8l0.5,0.9l0.4,0.9l0.4,0.9l0.4,0.9l0.3,0.9l0.3,0.9l0.2,1l0.2,1l0.1,1l0.1,1l0,1l0,1l-0.1,1l-0.1,1
	l-0.2,1l-0.2,1l-0.3,1l-0.3,1l-0.4,0.9l-0.4,0.9l-0.4,0.9l-0.5,0.9l-0.5,0.8l-0.5,0.8l-0.6,0.8l-0.6,0.7l-0.7,0.7l-0.6,0.7l-0.7,0.6
	l-0.7,0.6l-0.8,0.6l-0.8,0.5L892,299l-0.8,0.5l-0.9,0.4l-0.9,0.4l-0.9,0.3l-0.9,0.2l-0.9,0.2l-0.9,0.2l-1,0.1l-1,0.1l-1,0l-1,0
	l-1-0.1l-1-0.1l-1-0.2l-0.9-0.2l-0.9-0.2l-0.9-0.3l-0.9-0.4l-0.8-0.4l-0.9-0.5l-0.8-0.5l-0.8-0.5l-0.7-0.6l-0.7-0.6l-0.7-0.6
	l-0.7-0.7l-0.7-0.7l-0.6-0.7l-0.6-0.8l-0.5-0.8l-0.5-0.8l-0.4-0.9l-0.4-0.9L865,289l-0.3-0.9l-0.3-1l-0.3-1l-0.2-1l-0.2-1l-0.1-1
	l-0.1-1L863.6,281L863.6,281z M874.3,292.7h4.4V283h3.4l0.9,0l0.8,0.1l0.7,0.1l0.6,0.2l0.5,0.2l0.4,0.2l0.4,0.3l0.3,0.3l0.2,0.3
	l0.2,0.4l0.1,0.3l0.1,0.4l0,0.4l0,0.4l0,0.4v0.4v1.3v1.1l0,0.9l0.1,0.6l0.1,0.3l0,0.2l0.1,0.2l0.1,0.2l0.1,0.2l0.1,0.2l0.2,0.1
	l0.2,0.2h4.4l-0.2-0.2l-0.1-0.2l-0.1-0.2l-0.1-0.2l-0.2-0.4L892,291l-0.1-1.4l-0.2-2.2l0-1l-0.1-0.9l-0.1-0.5l-0.1-0.4l-0.1-0.4
	l-0.2-0.4l-0.2-0.4l-0.2-0.4l-0.3-0.3l-0.3-0.3l-0.4-0.3l-0.4-0.3l-0.5-0.2l-0.6-0.2l0.7-0.2l0.6-0.3l0.5-0.3l0.5-0.3l0.4-0.3
	l0.3-0.3l0.3-0.4l0.2-0.3l0.2-0.4l0.1-0.4l0.1-0.4l0.1-0.3l0.1-0.7v-0.6v-0.5l0-0.5l-0.1-0.5l-0.1-0.5l-0.1-0.4l-0.2-0.4l-0.2-0.3
	l-0.2-0.4l-0.2-0.3l-0.2-0.3l-0.2-0.3l-0.3-0.3l-0.3-0.2l-0.3-0.2l-0.3-0.2l-0.3-0.2l-0.6-0.3l-0.7-0.3l-0.6-0.1l-0.7-0.2l-0.6-0.1
	l-0.6,0l-0.5,0h-0.5h-10.4V292.7L874.3,292.7z M878.7,272.2h4.4h0.6l0.5,0l0.5,0.1l0.5,0.1l0.4,0.1l0.4,0.2l0.4,0.1l0.3,0.3l0.3,0.2
	l0.3,0.3l0.2,0.2l0.2,0.4l0.1,0.4l0.1,0.4l0.1,0.5v0.5v0.4l0,0.3l0,0.3l-0.1,0.4l-0.1,0.3l-0.1,0.3l-0.2,0.3l-0.2,0.3l-0.3,0.3
	l-0.3,0.2l-0.3,0.2l-0.4,0.2l-0.5,0.2l-0.5,0.1l-0.6,0.1l-0.7,0h-5V272.2L878.7,272.2z M992.1,459.9H669.6l-4-0.1l-3.9-0.3l-3.9-0.5
	l-3.8-0.7l-3.7-0.9l-3.7-1.1l-3.6-1.2l-3.5-1.3l-3.4-1.6l-3.4-1.7l-3.2-1.9l-3.1-2l-3-2.2l-2.9-2.3l-2.8-2.5l-2.7-2.6l-2.5-2.7
	l-2.4-2.8l-2.3-2.9l-2.2-3l-2-3.2l-1.9-3.3l-1.7-3.3l-1.6-3.5l-1.4-3.5l-1.2-3.6l-1.1-3.7l-0.9-3.7l-0.7-3.8l-0.5-3.9l-0.3-3.9
	l-0.1-4l0.1-4l0.3-3.9l0.4-3.9l0.7-3.8l0.8-3.7l1-3.7l1.2-3.6l1.3-3.6l1.5-3.5l1.7-3.4l1.8-3.3l2-3.2l2.1-3.1l2.2-3l2.4-2.9l2.5-2.7
	l2.7-2.6l2.8-2.5l2.9-2.3l3-2.2l3.1-2.1l3.2-1.9l3.4-1.8l3.5-1.6l3.5-1.4l3.6-1.3l3.7-1.1l3.8-0.9l3.9-0.7l3.9-0.5l4-0.3l4.1-0.1
	l3.9,0.1l3.9,0.3l3.8,0.5l3.8,0.7l3.7,0.9l3.7,1.1l3.6,1.3l3.6,1.5l3.5,1.6l3.4,1.8l3.3,2l3.2,2.2l3.1,2.3l3,2.5l2.9,2.6l2.8,2.8
	l2.6,2.9l2.5,3l2.4,3.1l2.3,3.2l2.1,3.4l1.9,3.5l1.8,3.6l1.6,3.7l1.4,3.8l1.3,3.9l1.1,3.9l0.9,4.1l0.7,4.2l0.5,4.2l0.3,4.3l0.1,4.3
	h-0.4h-1.2h-1.8h-2.3h-2.7h-3.1H733h-3.4h-3.4H723h-3h-2.7h-2.3h-1.8h-1.1h-0.4l0-2.4l-0.1-2.3l-0.2-2.4l-0.3-2.3l-0.4-2.3l-0.5-2.2
	l-0.6-2.2l-0.7-2.1l-0.7-2.1l-0.9-2l-0.9-1.9l-1-1.9l-1.1-1.9l-1.2-1.7l-1.2-1.7l-1.3-1.6l-1.4-1.6l-1.5-1.5l-1.6-1.4l-1.6-1.3
	l-1.7-1.2L691,346l-1.8-1l-1.8-0.9l-2-0.9l-2-0.7l-2.1-0.6l-2.1-0.5l-2.2-0.4l-2.2-0.3l-2.4-0.1l-2.4-0.1l-2.4,0.1l-2.3,0.1
	l-2.3,0.3l-2.2,0.4l-2.2,0.5l-2.1,0.6l-2,0.7l-1.9,0.9l-1.9,0.9l-1.8,1l-1.7,1.1l-1.7,1.2l-1.6,1.3l-1.6,1.4l-1.4,1.5l-1.4,1.6
	l-1.3,1.6l-1.2,1.7l-1.2,1.7l-1.1,1.9l-1,1.9l-0.9,1.9l-0.8,2l-0.8,2.1l-0.7,2.1l-0.6,2.2l-0.5,2.2l-0.4,2.3l-0.3,2.3l-0.2,2.4
	l-0.2,2.3l0,2.4l0.1,1.9l0.2,1.9l0.3,1.9l0.4,1.8l0.5,1.8l0.6,1.8l0.8,1.7l0.8,1.6l0.9,1.6l1,1.6l1.1,1.5l1.2,1.5l1.2,1.5l1.3,1.4
	l1.4,1.3l1.5,1.2l1.5,1.2l1.5,1.1l1.6,1.1l1.7,1l1.7,0.9l1.8,0.9l1.8,0.8l1.8,0.7l1.8,0.6l1.9,0.5l1.9,0.5l1.9,0.4l1.9,0.3l1.9,0.2
	l2,0.1l1.9,0.1h322.2V459.9L992.1,459.9z M992.1,517.2H669.9l-6.8-0.2l-6.7-0.5l-6.7-0.8l-6.6-1.1l-6.5-1.4l-6.3-1.7l-6.3-2
	l-6.1-2.3l-5.9-2.5L606,502l-5.6-3.1l-5.5-3.3l-5.3-3.6l-5.1-3.8l-4.9-4l-4.7-4.3l-4.5-4.5l-4.3-4.7l-4-4.9l-3.8-5.1l-3.6-5.3
	l-3.3-5.4l-3-5.7l-2.7-5.8l-2.4-5.9l-2.1-6.1l-1.8-6.3l-1.6-6.4l-1.2-6.6l-0.8-6.6l-0.6-6.8L535,387l0.2-7l0.5-6.8l0.9-6.8l1.1-6.7
	l1.4-6.6l1.7-6.5l2.1-6.4l2.3-6.3l2.6-6.1l2.9-6l3.2-5.9l3.4-5.7l3.7-5.5l3.9-5.3l4.1-5.2l4.4-4.9l4.6-4.7l4.8-4.5l5.1-4.2l5.3-4
	l5.4-3.8l5.6-3.4l5.9-3.2l6-2.9l6.2-2.6l6.4-2.3l6.5-2l6.7-1.6l6.8-1.3l7-1l7.1-0.5l7.2-0.2l7.3,0.2l7.1,0.5l7,0.9l6.8,1.2l6.7,1.5
	l6.6,1.9l6.4,2.2l6.2,2.5l6.1,2.8l5.8,3.1l5.7,3.4l5.4,3.6l5.3,3.9l5,4.2l4.8,4.4l4.7,4.6l4.4,4.9l4.2,5.1l3.9,5.3l3.7,5.5l3.4,5.7
	l3.1,5.9l2.9,6l2.6,6.2l2.3,6.4l2,6.5l1.8,6.7l1.4,6.8l1.1,6.9l0.9,7l0.4,7.2l0.2,7.3h-36.3l-0.2-5l-0.4-4.9l-0.6-5l-0.8-4.9l-1-4.8
	l-1.2-4.8l-1.3-4.7l-1.6-4.6l-1.8-4.5l-2-4.5l-2.1-4.3l-2.3-4.3l-2.6-4.1l-2.7-4l-2.9-3.9l-3.1-3.7l-3.3-3.5l-3.5-3.3l-3.6-3.2
	l-3.8-3l-4-2.8l-4.1-2.6L716,294l-4.5-2.2l-4.6-2l-4.8-1.7l-5-1.5l-5.1-1.2l-5.3-1l-5.4-0.7l-5.6-0.4l-5.8-0.1l-5.8,0.1l-5.6,0.5
	l-5.4,0.7l-5.3,1l-5.1,1.3l-5,1.5l-4.8,1.8l-4.6,2l-4.5,2.2l-4.3,2.4l-4.1,2.7l-4,2.8l-3.8,3l-3.6,3.3l-3.4,3.4l-3.3,3.5l-3,3.7
	l-2.9,3.9l-2.7,4l-2.5,4.1l-2.4,4.2l-2.1,4.3l-1.9,4.5l-1.7,4.5l-1.5,4.6l-1.3,4.6l-1.1,4.7l-0.9,4.8l-0.7,4.8l-0.5,4.8l-0.3,4.8
	l-0.1,4.9l0.2,4.4l0.4,4.4l0.6,4.4l0.8,4.3l1,4.3l1.3,4.2l1.5,4.2l1.7,4.2l1.9,4l2.1,4l2.3,3.9l2.5,3.8l2.7,3.7l2.9,3.6l3,3.5
	l3.2,3.4l3.4,3.2l3.6,3.1l3.7,2.9l3.8,2.8l4,2.6l4.1,2.4l4.3,2.2l4.4,2l4.5,1.9l4.6,1.6l4.8,1.4l4.9,1.2l5,0.9l5.1,0.7l5.2,0.4
	l5.2,0.1h322.2V517.2L992.1,517.2z M446.4,303.1h-72.5v36.6h36.6v181.9h36.2L446.4,303.1L446.4,303.1z"/>
</svg>
