<?xml version="1.0" standalone="no"?>
<!DOCTYPE svg PUBLIC "-//W3C//DTD SVG 20010904//EN"
 "http://www.w3.org/TR/2001/REC-SVG-20010904/DTD/svg10.dtd">
<svg version="1.0" xmlns="http://www.w3.org/2000/svg"
 width="2742.000000pt" height="2742.000000pt" viewBox="0 0 2742.000000 2742.000000"
 preserveAspectRatio="xMidYMid meet">
<metadata>
Created by potrace 1.14, written by Peter Selinger 2001-2017
</metadata>
<g transform="translate(0.000000,2742.000000) scale(0.100000,-0.100000)"
fill="#000000" stroke="none">
<path d="M13670 23465 c-19 -8 -87 -34 -150 -58 -63 -24 -234 -90 -380 -146
-146 -56 -285 -110 -310 -121 -25 -10 -92 -36 -150 -59 -58 -22 -157 -60 -220
-84 -63 -25 -194 -75 -290 -112 -96 -36 -184 -71 -195 -76 -11 -4 -103 -40
-205 -79 -102 -39 -194 -74 -205 -79 -11 -6 -117 -47 -235 -92 -118 -45 -276
-105 -350 -134 -74 -29 -324 -126 -555 -215 -457 -176 -631 -243 -685 -265
-19 -8 -78 -30 -130 -50 -52 -20 -104 -40 -115 -45 -23 -11 -385 -151 -400
-154 -5 -2 -23 -8 -40 -15 -16 -7 -257 -100 -535 -208 -278 -107 -543 -210
-590 -228 -47 -18 -164 -63 -260 -100 -96 -36 -184 -71 -195 -76 -30 -13 -562
-219 -620 -240 -27 -9 -178 -67 -335 -129 -157 -61 -296 -115 -310 -120 -14
-5 -131 -50 -260 -100 -129 -51 -257 -100 -285 -111 -27 -10 -126 -48 -220
-84 -93 -37 -287 -111 -430 -166 -143 -55 -269 -104 -280 -109 -20 -9 -508
-198 -595 -230 -25 -9 -54 -21 -65 -25 -11 -4 -83 -32 -160 -62 -77 -30 -156
-60 -175 -68 -19 -7 -107 -41 -195 -75 -88 -34 -174 -68 -192 -76 -17 -8 -36
-14 -42 -14 -6 0 -19 -4 -29 -10 -9 -5 -127 -52 -262 -104 -135 -52 -285 -110
-335 -129 -49 -19 -180 -69 -290 -112 -110 -42 -310 -120 -445 -173 -135 -52
-261 -101 -280 -108 -19 -7 -172 -66 -340 -131 l-305 -118 1 -4903 c0 -2696 3
-4904 6 -4907 4 -5 295 -118 643 -251 94 -36 179 -69 190 -74 11 -5 50 -20 88
-34 37 -14 95 -37 130 -50 34 -13 123 -47 197 -76 74 -29 155 -60 180 -70 25
-10 133 -52 240 -93 512 -197 747 -288 765 -296 11 -5 88 -35 170 -67 336
-128 1256 -483 1280 -493 11 -5 81 -32 155 -61 74 -28 144 -55 155 -60 11 -5
81 -32 155 -60 74 -28 144 -55 155 -60 11 -5 198 -77 415 -160 217 -83 404
-155 415 -160 21 -10 366 -143 580 -224 142 -54 542 -208 560 -216 11 -5 121
-48 245 -96 236 -90 391 -150 425 -164 11 -5 70 -27 130 -50 61 -23 119 -46
130 -50 11 -5 63 -25 115 -45 52 -20 104 -40 115 -45 11 -5 238 -92 505 -195
267 -103 541 -209 610 -236 157 -61 317 -122 490 -189 74 -28 185 -71 245 -95
61 -24 200 -78 310 -120 110 -42 227 -87 260 -100 167 -65 316 -123 470 -182
292 -113 383 -148 615 -238 124 -48 252 -97 285 -110 79 -30 492 -189 575
-222 74 -29 422 -164 581 -225 l106 -40 289 111 c159 61 298 116 309 120 26
12 214 84 345 133 58 21 114 43 125 48 11 5 79 32 150 59 164 63 583 225 610
236 11 5 22 9 25 9 3 1 70 27 150 58 80 31 228 89 330 128 251 97 290 112 400
154 52 20 104 41 115 46 11 5 70 27 130 50 144 55 216 83 350 135 61 24 142
55 180 69 39 15 79 30 90 35 11 6 117 47 235 92 118 45 229 87 245 94 17 7 46
18 65 25 19 7 49 19 65 26 17 7 57 22 90 34 33 13 83 31 110 42 28 11 79 31
115 44 36 13 74 28 85 34 11 5 58 23 105 41 47 17 99 37 115 44 17 8 185 73
375 146 190 73 460 177 600 231 140 54 278 107 305 118 28 10 113 43 190 72
77 30 259 101 405 157 146 56 274 106 285 111 11 6 67 28 125 49 58 22 251 97
430 166 356 138 623 241 945 365 116 44 219 84 230 89 11 5 117 47 235 92 118
45 319 122 445 171 219 85 327 127 655 252 80 31 154 60 165 65 11 5 117 46
235 91 118 45 224 86 235 90 11 5 92 37 180 71 260 100 384 148 490 189 207
81 832 322 880 340 28 10 86 33 130 50 44 17 114 44 155 60 41 15 95 37 120
48 l45 19 -1 4904 0 4904 -100 38 c-54 22 -108 43 -119 48 -11 5 -184 72 -385
150 -201 77 -498 192 -660 254 -162 63 -416 161 -565 218 -148 58 -313 121
-365 141 -52 20 -104 41 -115 45 -11 5 -99 39 -195 76 -96 37 -236 91 -310
120 -74 29 -157 60 -185 70 -27 10 -54 22 -59 27 -6 4 -16 8 -24 8 -8 0 -40
11 -71 24 -31 14 -123 50 -206 81 -82 32 -181 70 -220 85 -67 27 -123 48 -415
160 -74 29 -149 58 -167 66 -17 8 -34 14 -37 14 -3 0 -79 29 -169 64 -213 84
-362 141 -712 276 -159 61 -299 115 -310 120 -26 11 -168 66 -325 125 -69 26
-138 53 -155 60 -16 7 -61 25 -100 39 -38 15 -79 30 -90 35 -11 5 -40 17 -65
26 -159 60 -1009 387 -1025 395 -11 5 -130 52 -265 104 -320 122 -445 171
-555 213 -49 19 -99 39 -110 43 -11 4 -38 15 -60 23 -22 9 -94 37 -160 62 -66
26 -178 69 -250 97 -71 27 -186 72 -255 99 -69 26 -179 69 -245 94 -312 121
-1071 414 -1245 481 -107 42 -204 79 -215 84 -11 5 -49 20 -85 33 -91 35 -442
170 -580 224 -63 25 -142 55 -175 68 -122 47 -463 179 -575 221 -63 25 -124
49 -135 54 -52 23 -597 230 -617 234 -13 2 -39 -2 -58 -9z m186 -1034 c191
-73 936 -360 959 -370 11 -5 67 -27 125 -49 58 -22 177 -68 265 -102 287 -111
656 -254 860 -332 72 -27 139 -54 150 -58 23 -10 80 -32 360 -140 424 -163
866 -334 1015 -392 85 -33 193 -75 240 -93 149 -58 261 -101 395 -153 72 -28
330 -128 575 -223 245 -94 472 -182 505 -194 33 -13 213 -82 400 -155 187 -73
374 -145 415 -161 41 -15 98 -37 125 -47 28 -11 140 -54 250 -96 110 -43 209
-81 220 -86 11 -5 49 -20 85 -34 36 -13 108 -41 160 -61 167 -65 841 -326 970
-375 69 -26 177 -68 240 -93 63 -25 275 -107 470 -182 195 -75 492 -190 660
-255 168 -65 348 -134 400 -154 52 -20 104 -41 115 -45 11 -5 58 -24 105 -41
47 -18 99 -38 117 -46 17 -8 33 -14 36 -14 3 0 68 -24 144 -54 76 -30 257
-100 403 -156 146 -56 274 -105 285 -110 11 -5 139 -55 285 -111 146 -56 269
-105 275 -111 7 -6 10 -1407 10 -4162 l0 -4153 -95 37 c-52 20 -104 40 -115
45 -11 5 -22 9 -25 10 -14 5 -47 18 -65 25 -11 5 -87 34 -170 65 -82 32 -181
70 -220 85 -38 16 -178 70 -310 120 -132 51 -289 112 -350 135 -60 24 -240 94
-400 155 -159 62 -328 127 -375 145 -47 18 -186 72 -310 120 -124 47 -234 90
-245 95 -11 4 -58 22 -105 40 -47 18 -94 36 -105 41 -11 4 -74 29 -140 54 -66
26 -136 52 -155 60 -19 8 -105 41 -190 74 -85 32 -297 114 -470 181 -173 67
-443 171 -600 232 -277 107 -351 135 -703 273 -92 36 -171 65 -174 65 -3 0
-19 7 -36 15 -28 12 -143 57 -157 60 -3 1 -16 6 -30 12 -14 6 -74 30 -135 52
-60 23 -137 53 -170 66 -73 28 -215 84 -310 120 -38 14 -79 30 -90 35 -11 5
-87 34 -170 66 -82 31 -163 62 -180 69 -16 7 -266 104 -555 215 -289 111 -534
205 -545 210 -11 5 -49 20 -85 33 -87 34 -230 89 -370 144 -63 25 -180 70
-260 100 -80 30 -158 60 -175 67 -36 16 -278 110 -285 111 -3 0 -43 16 -90 34
-47 18 -123 48 -170 66 -149 58 -431 167 -970 375 -289 111 -534 206 -545 211
-21 9 -363 142 -425 165 -19 7 -123 47 -230 89 -107 42 -199 78 -205 79 -5 2
-23 9 -40 15 -16 7 -65 26 -109 42 -43 16 -84 33 -90 37 -9 5 -12 1028 -11
4160 0 2283 3 4152 6 4152 3 0 64 -22 135 -49z m-4423 -7602 c117 -44 221 -84
232 -89 11 -5 92 -37 180 -70 88 -34 169 -65 180 -70 11 -5 49 -20 85 -33 66
-26 205 -79 315 -122 129 -50 195 -75 325 -125 74 -28 144 -55 155 -60 11 -5
189 -74 395 -154 206 -79 488 -188 625 -241 138 -53 378 -146 535 -206 157
-61 294 -114 305 -118 20 -8 20 -18 20 -1307 l0 -1298 -35 -7 c-19 -4 -58 -10
-86 -14 -29 -3 -61 -7 -71 -9 -11 -3 -44 -7 -73 -11 -29 -4 -61 -8 -70 -10 -9
-2 -41 -6 -71 -10 -30 -3 -65 -8 -79 -10 -14 -3 -38 -7 -55 -9 -16 -2 -50 -7
-75 -11 -86 -13 -95 -14 -176 -25 -44 -6 -89 -12 -100 -14 -18 -3 -83 -12
-149 -20 -38 -5 -102 -14 -180 -26 -33 -5 -80 -12 -105 -15 -25 -3 -74 -10
-110 -15 -36 -5 -83 -12 -105 -15 -22 -3 -71 -10 -110 -16 -38 -6 -81 -12 -95
-14 -14 -2 -47 -7 -75 -10 -27 -3 -61 -8 -75 -10 -14 -2 -45 -7 -70 -10 -25
-3 -56 -8 -70 -10 -14 -2 -45 -7 -70 -10 -25 -3 -72 -10 -105 -15 -33 -5 -82
-12 -110 -16 -27 -3 -57 -8 -65 -9 -9 -2 -43 -6 -75 -10 -33 -4 -69 -9 -80
-11 -11 -2 -40 -7 -65 -10 -25 -3 -54 -8 -65 -10 -11 -2 -40 -6 -65 -10 -51
-6 -242 -33 -280 -39 -14 -2 -47 -7 -75 -10 -27 -3 -77 -10 -110 -15 -33 -5
-80 -12 -105 -15 -25 -3 -56 -8 -70 -10 -14 -2 -45 -6 -70 -10 -25 -3 -56 -8
-70 -10 -14 -3 -45 -7 -69 -10 -23 -3 -55 -7 -70 -9 -14 -3 -48 -7 -76 -11
-27 -3 -77 -10 -110 -15 -33 -5 -82 -12 -110 -15 -27 -4 -57 -8 -65 -10 -8 -2
-33 -6 -55 -9 -22 -3 -60 -8 -85 -12 -25 -3 -58 -8 -75 -10 -16 -2 -64 -8
-105 -14 -41 -6 -90 -13 -107 -15 -80 -12 -110 -16 -133 -20 -14 -3 -45 -7
-70 -10 -25 -3 -106 -14 -180 -25 -74 -11 -153 -22 -175 -25 -22 -2 -49 -6
-60 -9 -11 -2 -47 -7 -80 -10 -33 -4 -67 -9 -75 -11 -8 -2 -37 -6 -65 -10 -45
-6 -70 -9 -145 -20 -14 -2 -47 -7 -75 -11 -27 -3 -59 -8 -70 -10 -11 -2 -42
-6 -70 -10 -27 -3 -90 -11 -140 -19 -49 -8 -112 -17 -140 -20 -70 -9 -94 -12
-140 -19 -22 -4 -58 -9 -80 -12 -22 -3 -51 -7 -65 -9 -14 -2 -78 -11 -142 -20
-65 -9 -126 -18 -136 -20 -11 -2 -43 -6 -73 -10 -30 -3 -79 -10 -109 -15 -30
-5 -75 -12 -100 -15 -43 -5 -94 -12 -150 -20 -14 -2 -43 -6 -65 -10 -23 -3
-50 -7 -60 -9 -11 -2 -47 -7 -80 -11 -33 -4 -69 -9 -80 -11 -11 -1 -58 -8
-105 -14 -47 -6 -96 -13 -110 -15 -51 -7 -116 -17 -131 -20 -9 -2 -40 -6 -70
-10 -30 -3 -79 -10 -109 -15 -30 -5 -77 -12 -105 -15 -27 -3 -59 -7 -70 -9
-11 -2 -45 -7 -75 -11 -76 -11 -78 -12 -140 -19 -30 -4 -80 -11 -110 -16 -30
-5 -75 -12 -100 -15 -106 -14 -126 -16 -152 -21 -16 -2 -40 -6 -55 -8 -16 -3
-46 -7 -68 -10 -56 -7 -264 -36 -297 -42 -67 -10 -157 -23 -208 -29 -47 -5
-149 -20 -205 -29 -64 -10 -160 -24 -225 -31 -25 -3 -70 -10 -100 -15 -30 -5
-75 -12 -100 -15 -25 -3 -56 -8 -70 -10 -14 -2 -45 -7 -70 -10 -25 -2 -54 -7
-66 -9 -12 -2 -45 -7 -75 -11 -30 -4 -69 -9 -88 -11 -19 -2 -46 -6 -60 -9 -14
-2 -78 -11 -141 -20 -63 -9 -131 -18 -150 -21 -19 -3 -49 -7 -65 -9 -51 -6
-248 -35 -280 -41 -36 -8 -13 12 284 236 106 80 202 153 214 162 12 9 56 42
97 73 74 56 286 217 630 478 96 73 267 202 380 288 113 85 261 198 330 250 69
52 190 144 270 204 80 60 147 112 150 115 3 3 57 44 120 91 153 115 671 507
690 522 8 7 60 46 115 87 55 41 102 77 105 80 3 3 41 33 85 65 44 33 82 62 85
65 3 3 77 59 165 125 88 65 162 122 165 125 7 7 275 210 310 235 38 26 423
318 430 325 3 3 52 41 109 84 58 43 178 134 268 202 90 68 236 179 326 247 89
68 218 166 286 218 122 92 429 325 745 564 87 66 220 167 296 225 76 58 149
113 162 122 13 10 111 85 218 167 107 82 196 150 198 150 2 1 98 -35 215 -80z"/>
</g>
</svg>
