<?xml version="1.0" standalone="no"?>
<!DOCTYPE svg PUBLIC "-//W3C//DTD SVG 20010904//EN"
 "http://www.w3.org/TR/2001/REC-SVG-20010904/DTD/svg10.dtd">
<svg version="1.0" xmlns="http://www.w3.org/2000/svg"
 width="1230.000000pt" height="300.000000pt" viewBox="0 0 1230.000000 300.000000"
 preserveAspectRatio="xMidYMid meet">

<g transform="translate(0.000000,300.000000) scale(0.100000,-0.100000)"
fill="#000000" stroke="none">
<path d="M1025 2506 l-910 -352 0 -708 0 -708 900 -349 c495 -192 907 -350
915 -351 8 -1 422 157 920 350 l905 351 0 707 0 708 -900 348 c-495 191 -905
349 -910 352 -6 2 -420 -155 -920 -348z m1764 -116 l841 -325 0 -602 0 -602
-42 15 c-24 8 -405 156 -848 327 l-805 312 -3 603 c-1 348 2 602 7 600 5 -1
387 -149 850 -328z m-1199 -880 c102 -40 191 -74 198 -77 9 -4 12 -52 12 -194
0 -188 0 -189 -22 -193 -47 -10 -1531 -217 -1534 -214 -1 2 232 182 519 399
l522 396 60 -22 c33 -13 143 -55 245 -95z"/>
<path d="M6334 2169 c-159 -15 -273 -68 -384 -179 -112 -112 -172 -230 -201
-396 -15 -86 -6 -311 15 -389 65 -241 248 -423 471 -470 307 -64 608 69 733
325 67 136 85 219 85 395 0 124 -3 164 -21 229 -55 199 -171 347 -332 424
-116 55 -228 74 -366 61z m190 -219 c153 -58 252 -230 263 -460 13 -254 -78
-455 -242 -536 -52 -25 -71 -29 -145 -29 -76 0 -93 4 -151 32 -111 55 -183
155 -224 308 -22 81 -22 268 -1 359 40 171 142 296 276 337 51 15 168 10 224
-11z"/>
<path d="M7405 2149 c-49 -5 -96 -11 -102 -14 -10 -3 -13 -153 -13 -700 l0
-695 125 0 125 0 0 268 0 267 143 0 c165 0 238 18 347 83 122 74 187 185 197
338 15 222 -96 378 -313 439 -71 20 -369 29 -509 14z m360 -190 c150 -28 225
-119 212 -260 -15 -164 -161 -257 -372 -234 l-65 7 0 243 0 244 48 4 c96 7
120 7 177 -4z"/>
<path d="M4600 1445 l0 -705 125 0 125 0 0 325 0 325 68 0 c92 0 156 -23 208
-76 58 -58 95 -135 144 -300 22 -76 52 -169 66 -206 l26 -68 135 0 c125 0 135
1 129 17 -3 10 -42 125 -86 256 -88 265 -131 356 -199 424 -45 44 -149 103
-183 103 -36 0 -25 19 30 55 126 83 268 256 405 493 l36 62 -152 0 -152 0 -50
-108 c-65 -139 -167 -293 -241 -363 -64 -60 -100 -82 -151 -94 l-33 -7 0 286
0 286 -125 0 -125 0 0 -705z"/>
<path d="M8374 2038 c30 -62 138 -284 240 -492 102 -209 186 -390 186 -403 0
-31 -32 -94 -72 -138 -47 -54 -98 -76 -182 -78 l-71 -2 -8 -94 c-5 -54 -5 -97
0 -102 16 -16 135 -22 196 -10 191 35 310 173 470 541 45 104 335 838 345 873
4 16 -5 17 -128 15 l-133 -3 -98 -293 c-54 -162 -113 -343 -131 -403 -18 -60
-35 -109 -38 -109 -4 0 -23 44 -43 98 -21 53 -97 235 -170 405 l-132 307 -142
0 -142 0 53 -112z"/>
<path d="M9630 1445 l0 -705 125 0 125 0 0 310 0 310 305 0 305 0 0 -310 0
-310 125 0 125 0 0 705 0 705 -125 0 -125 0 -2 -282 -3 -283 -300 0 -300 0 -3
283 -2 282 -125 0 -125 0 0 -705z"/>
<path d="M11230 1908 c0 -445 -35 -643 -154 -878 l-43 -85 -56 -3 -57 -3 0
-275 0 -275 103 3 102 3 6 140 c4 77 7 155 8 173 l1 32 429 0 428 0 7 -46 c3
-26 6 -84 6 -129 0 -45 3 -103 6 -129 l7 -46 98 0 99 0 0 275 0 275 -65 0 -65
0 0 605 0 605 -430 0 -430 0 0 -242z m610 -463 l0 -495 -274 0 -275 0 39 83
c91 195 121 352 127 670 l5 237 189 0 189 0 0 -495z"/>
</g>
</svg>
