<?xml version="1.0" encoding="utf-8"?>
<!-- Generator: Adobe Illustrator 26.0.3, SVG Export Plug-In . SVG Version: 6.00 Build 0)  -->
<svg version="1.1" id="Слой_1" xmlns="http://www.w3.org/2000/svg" xmlns:xlink="http://www.w3.org/1999/xlink" x="0px" y="0px"
	 viewBox="0 0 1366 768" style="enable-background:new 0 0 1366 768;" xml:space="preserve">
<style type="text/css">
	.st0{fill:#0B67B2;}
</style>
<g>
	<g>
		<path class="st0" d="M683,164.7l-147,56.8v113.6l147,56.9l147-56.9V221.6v0v0L683,164.7z M672.2,310.1l-125.4,17.7l84.2-63.8
			l41.2,16V310.1z M819.2,325.2L683,272.6v-96.3l136.2,52.7V325.2z"/>
	</g>
	<g>
		<path class="st0" d="M418.9,509.8c21.7-12.4,29.9-29.9,41.2-48.4h-25c-5.1,12.7-21.1,45.8-38.1,45.8v-45.8h-20.6v113.6h20.6v-52.5
			h4.8c16.3,0,22.4,10,27,23.8c2.9,8.6,5.1,20.9,9.5,28.7h22.3c-5.2-10.8-8.5-25.2-12.8-37.1C442.4,523.6,435.4,512.9,418.9,509.8z"
			/>
		<path class="st0" d="M522.1,459.4c-32,0-54.1,24.6-54.1,59.7c0,33.2,20.3,57.9,52.5,57.9c31.2,0,54.4-21.8,54.4-59.9
			C574.7,484.6,555.2,459.4,522.1,459.4z M521.4,560.3c-19.9,0-31.5-18.4-31.5-41.7c0-23.5,11-42.5,31.5-42.5
			c20.8,0,31.4,20.2,31.4,41.6C552.8,541.6,541.5,560.3,521.4,560.3z"/>
		<path class="st0" d="M657.7,469.9c-7.3-6.1-18.2-9.3-33.4-9.3c-13.8,0-24.1,1-31.7,2.4v112.1h20.6v-43c2.8,0.7,6.2,0.8,10.1,0.8
			c14.7,0,27.5-4,35.9-12.3c6.2-6.1,9.6-14.8,9.6-25.6C668.8,484.4,664.4,475.5,657.7,469.9z M623.3,516.8c-4.2,0-7.4-0.2-10.1-1
			v-38.1c2.2-0.5,6.2-1,12-1c14.3,0,23.1,6.6,23.1,19.2C648.3,509,638.8,516.8,623.3,516.8z"/>
		<path class="st0" d="M733.3,505.5c-2.9,8.9-4.9,16-6.6,21.2h-0.5c-2.5-6.7-5.1-13.5-8.1-20.9l-19.2-44.3h-23.4l38.1,77.9
			c1,2.4,1.3,3.9,0.3,6.1c-2.9,6.4-8.8,14.5-18.4,14.5c-3.2,0-5.4-0.2-7.3-0.7l-1.5,16.7c2.5,1,5.6,1.5,10.6,1.5
			c11.8,0,20.7-5.3,28.2-14.5c8.3-10.6,15.4-27.8,21.9-44.3l22.4-57.2h-21.9L733.3,505.5z"/>
		<polygon class="st0" points="849.8,507 801.8,507 801.8,461.5 781,461.5 781,575.1 801.8,575.1 801.8,525 849.8,525 849.8,575.1 
			870.6,575.1 870.6,461.5 849.8,461.5 		"/>
		<path class="st0" d="M978.9,558.6v-97.1h-69.5v29.7c0,16.3-1.3,30.2-4.9,42.3c-2.5,8.9-6.6,17.2-10.9,25.1l-9.1,0.5v44.2h16.9
			l1.2-28.2h69l1.2,28.2h17v-44.2L978.9,558.6z M958.1,558.1h-43.4c3.1-5.6,6.3-12.8,8.5-20.2c3.7-12,5.4-26,5.4-41.5v-17.9h29.5
			V558.1z"/>
	</g>
</g>
</svg>
