<?xml version="1.0" encoding="utf-8"?>
<!-- Generator: Adobe Illustrator 26.0.3, SVG Export Plug-In . SVG Version: 6.00 Build 0)  -->
<svg version="1.1" id="Слой_1" xmlns="http://www.w3.org/2000/svg" xmlns:xlink="http://www.w3.org/1999/xlink" x="0px" y="0px"
	 viewBox="0 0 1366 768" style="enable-background:new 0 0 1366 768;" xml:space="preserve">
<style type="text/css">
	.st0{fill:#3D58A0;}
</style>
<g>
	<path class="st0" d="M354.3,357.2c26.9-15.5,37.2-37.2,51.2-60.2h-31.1c-6.3,15.9-26.3,57-47.4,57v-57h-25.6v141.4H327v-65.3h5.9
		c20.4,0,27.9,12.4,33.6,29.6c3.5,10.7,6.4,26.1,11.8,35.7h27.7c-6.5-13.4-10.6-31.3-16-46.2C383.6,374.4,374.9,361,354.3,357.2z"/>
	<path class="st0" d="M482.8,294.5c-39.9,0-67.4,30.6-67.4,74.3c0,41.3,25.2,72,65.3,72c38.8,0,67.6-27.1,67.6-74.5
		C548.2,325.7,523.9,294.5,482.8,294.5z M481.9,420c-24.8,0-39.2-22.9-39.2-51.8c0-29.2,13.6-52.9,39.2-52.9c25.8,0,39,25.2,39,51.8
		C521,396.7,506.9,420,481.9,420z"/>
	<path class="st0" d="M651.5,307.5c-9-7.5-22.7-11.5-41.6-11.5c-17.2,0-30,1.3-39.5,2.9v139.5h25.6v-53.5c3.6,0.8,7.8,1,12.6,1
		c18.3,0,34.2-5,44.7-15.3c7.8-7.5,12-18.5,12-31.9C665.4,325.5,659.9,314.4,651.5,307.5z M608.7,365.8c-5.2,0-9.2-0.2-12.6-1.3
		v-47.4c2.7-0.6,7.8-1.2,14.9-1.2c17.8,0,28.8,8.2,28.8,23.9C639.8,356.2,628,365.8,608.7,365.8z"/>
	<path class="st0" d="M745.5,351.8c-3.6,11.1-6.1,19.9-8.2,26.5h-0.6c-3.1-8.4-6.3-16.8-10.1-26L702.7,297h-29.2l47.4,97
		c1.3,2.9,1.7,4.8,0.4,7.6c-3.6,8-10.9,18-22.9,18c-4,0-6.7-0.2-9-0.9l-1.9,20.8c3.1,1.2,6.9,1.9,13.2,1.9
		c14.7,0,25.8-6.5,35.1-18.1c10.3-13.2,19.1-34.6,27.3-55.2l27.9-71.2h-27.3L745.5,351.8z"/>
	<polygon class="st0" points="890.6,353.7 830.8,353.7 830.8,297 804.9,297 804.9,438.4 830.8,438.4 830.8,376.1 890.6,376.1 
		890.6,438.4 916.4,438.4 916.4,297 890.6,297 	"/>
	<path class="st0" d="M1051.1,417.9V297h-86.5v36.9c0,20.4-1.7,37.6-6.1,52.7c-3.1,11.1-8.2,21.4-13.6,31.3l-11.3,0.6v55h21
		l1.5-35.1h85.8l1.5,35.1h21.2v-55L1051.1,417.9z M1025.3,417.2h-54c3.8-6.9,7.8-16,10.5-25.2c4.6-14.9,6.7-32.3,6.7-51.6v-22.3
		h36.7V417.2z"/>
</g>
</svg>
