<?xml version="1.0" encoding="UTF-8"?>
<!DOCTYPE svg PUBLIC "-//W3C//DTD SVG 1.1//EN" "http://www.w3.org/Graphics/SVG/1.1/DTD/svg11.dtd">
<svg xmlns="http://www.w3.org/2000/svg" version="1.1" width="1230px" height="300px" style="shape-rendering:geometricPrecision; text-rendering:geometricPrecision; image-rendering:optimizeQuality; fill-rule:evenodd; clip-rule:evenodd" xmlns:xlink="http://www.w3.org/1999/xlink">
<g><path style="opacity:0.99" fill="#3d57a0" d="M 189.5,13.5 C 193.687,13.3947 197.687,14.228 201.5,16C 259.389,38.7774 317.389,61.2774 375.5,83.5C 376.5,131.162 376.833,178.829 376.5,226.5C 315.298,249.682 254.131,273.016 193,296.5C 132.063,273.465 71.2295,250.132 10.5,226.5C 9.16667,178.833 9.16667,131.167 10.5,83.5C 70.4239,60.5311 130.091,37.1978 189.5,13.5 Z M 193.5,28.5 C 249.729,50.448 306.062,72.1147 362.5,93.5C 362.833,133.172 362.5,172.839 361.5,212.5C 305.912,190.637 250.245,168.971 194.5,147.5C 193.5,107.839 193.167,68.1723 193.5,28.5 Z M 127.5,137.5 C 144.716,144.024 161.883,150.691 179,157.5C 179.821,169.742 179.654,181.909 178.5,194C 127.809,201.289 77.1426,208.289 26.5,215C 60.3518,189.303 94.0184,163.47 127.5,137.5 Z"/></g>
<g><path style="opacity:0.98" fill="#3d57a0" d="M 629.5,81.5 C 678.58,80.251 704.247,104.251 706.5,153.5C 706.659,172.184 701.492,189.184 691,204.5C 670.138,226.676 644.972,233.51 615.5,225C 590.319,214.199 576.153,195.032 573,167.5C 570.168,144.833 575.168,124.166 588,105.5C 598.858,92.1603 612.692,84.1603 629.5,81.5 Z M 637.5,102.5 C 657.34,103.831 669.84,114.165 675,133.5C 680.485,154.358 677.819,174.024 667,192.5C 652.364,208.541 635.864,210.707 617.5,199C 605.756,186.781 600.09,172.115 600.5,155C 600.029,136.721 606.362,121.388 619.5,109C 625.169,105.503 631.169,103.336 637.5,102.5 Z"/></g>
<g><path style="opacity:0.988" fill="#3d579f" d="M 752.5,82.5 C 763.536,82.2515 774.536,82.7515 785.5,84C 809.4,87.8975 822.067,101.898 823.5,126C 822.35,151.823 809.016,167.156 783.5,172C 773.965,173.63 764.465,173.797 755,172.5C 754.5,190.497 754.333,208.497 754.5,226.5C 745.5,226.5 736.5,226.5 727.5,226.5C 727.5,179.5 727.5,132.5 727.5,85.5C 735.968,84.4444 744.301,83.4444 752.5,82.5 Z M 759.5,103.5 C 769.806,102.329 779.473,104.162 788.5,109C 795.815,115.618 798.315,123.784 796,133.5C 792.553,144.488 785.053,150.654 773.5,152C 767.13,152.706 760.797,152.539 754.5,151.5C 754.5,135.833 754.5,120.167 754.5,104.5C 756.415,104.784 758.081,104.451 759.5,103.5 Z"/></g>
<g><path style="opacity:0.985" fill="#3d57a0" d="M 458.5,83.5 C 467.167,83.5 475.833,83.5 484.5,83.5C 484.5,102.5 484.5,121.5 484.5,140.5C 488.44,140.242 492.107,139.076 495.5,137C 505.09,129.309 512.924,120.143 519,109.5C 523.311,101.046 527.477,92.5459 531.5,84C 542.182,83.1676 552.849,83.3343 563.5,84.5C 553.727,103.777 541.061,120.944 525.5,136C 521.5,138.667 517.5,141.333 513.5,144C 529.699,147.863 540.532,157.697 546,173.5C 551.95,191.182 557.783,208.849 563.5,226.5C 554.161,226.666 544.827,226.5 535.5,226C 530.142,213.926 525.975,201.426 523,188.5C 520.321,180.971 516.488,174.137 511.5,168C 503.522,162.107 494.522,159.607 484.5,160.5C 484.5,182.5 484.5,204.5 484.5,226.5C 475.833,226.5 467.167,226.5 458.5,226.5C 458.5,178.833 458.5,131.167 458.5,83.5 Z"/></g>
<g><path style="opacity:0.977" fill="#3d57a0" d="M 830.5,83.5 C 840.749,83.1806 850.916,83.5139 861,84.5C 872.39,110.671 883.39,137.004 894,163.5C 902.716,137.185 911.55,110.851 920.5,84.5C 929.81,83.5017 939.143,83.1684 948.5,83.5C 934.729,123.306 918.896,162.306 901,200.5C 888.776,223.362 869.943,232.362 844.5,227.5C 845.107,220.16 845.773,212.827 846.5,205.5C 862.993,208.023 873.993,201.356 879.5,185.5C 863.155,151.478 846.822,117.478 830.5,83.5 Z"/></g>
<g><path style="opacity:0.989" fill="#3d579f" d="M 961.5,83.5 C 970.5,83.5 979.5,83.5 988.5,83.5C 988.5,102.5 988.5,121.5 988.5,140.5C 1008.17,140.5 1027.83,140.5 1047.5,140.5C 1047.5,121.5 1047.5,102.5 1047.5,83.5C 1056.5,83.5 1065.5,83.5 1074.5,83.5C 1074.5,131.167 1074.5,178.833 1074.5,226.5C 1065.5,226.5 1056.5,226.5 1047.5,226.5C 1047.5,205.5 1047.5,184.5 1047.5,163.5C 1027.83,163.5 1008.17,163.5 988.5,163.5C 988.5,184.5 988.5,205.5 988.5,226.5C 979.5,226.5 970.5,226.5 961.5,226.5C 961.5,178.833 961.5,131.167 961.5,83.5 Z"/></g>
<g><path style="opacity:0.986" fill="#3d57a0" d="M 1121.5,83.5 C 1150.83,83.5 1180.17,83.5 1209.5,83.5C 1209.5,123.833 1209.5,164.167 1209.5,204.5C 1213.86,204.586 1218.19,204.92 1222.5,205.5C 1222.5,224.167 1222.5,242.833 1222.5,261.5C 1215.17,261.5 1207.83,261.5 1200.5,261.5C 1199.85,249.845 1199.52,238.178 1199.5,226.5C 1171.17,226.5 1142.83,226.5 1114.5,226.5C 1113.72,238.152 1113.05,249.819 1112.5,261.5C 1105.17,261.5 1097.83,261.5 1090.5,261.5C 1090.5,242.833 1090.5,224.167 1090.5,205.5C 1094.55,205.16 1098.55,204.494 1102.5,203.5C 1113.62,184.356 1119.79,163.689 1121,141.5C 1121.5,122.17 1121.67,102.836 1121.5,83.5 Z M 1146.5,105.5 C 1158.5,105.5 1170.5,105.5 1182.5,105.5C 1182.5,138.5 1182.5,171.5 1182.5,204.5C 1164.83,204.667 1147.16,204.5 1129.5,204C 1139.59,185.13 1145.09,164.963 1146,143.5C 1146.5,130.838 1146.67,118.171 1146.5,105.5 Z"/></g>
</svg>
