<?xml version="1.0" encoding="utf-8"?>
<!-- Generator: Adobe Illustrator 26.0.3, SVG Export Plug-In . SVG Version: 6.00 Build 0)  -->
<svg version="1.1" id="Слой_1" xmlns="http://www.w3.org/2000/svg" xmlns:xlink="http://www.w3.org/1999/xlink" x="0px" y="0px"
	 viewBox="0 0 1366 768" style="enable-background:new 0 0 1366 768;" xml:space="preserve">
<style type="text/css">
	.st0{fill-rule:evenodd;clip-rule:evenodd;fill:#D6CC70;}
	.st1{fill-rule:evenodd;clip-rule:evenodd;fill:#005FAE;}
	.st2{fill-rule:evenodd;clip-rule:evenodd;fill:#ED1C24;}
</style>
<g>
	<polygon class="st0" points="641.8,473.6 634.2,473.6 634.2,471.8 641.8,471.8 641.8,473.6 	"/>
	<polygon class="st0" points="770.7,282.8 619.3,282.8 619.3,429.1 637.7,429.1 637.7,301.2 770.7,301.2 770.7,282.8 	"/>
	<path class="st0" d="M950.2,319.2v37h-27.8v-37h-18.1v91.5h-18.4v-91.5h-147v91.5h-18.4v-91.5h-64.2v18.4h45.8v18.6h-45.8v72.9H757
		v-36.5h46.4v-55h64.3v18.6h-46.4v72.9h101.1v-54.9h27.8v54.9h18.2v-91.5h27.4v91.5h18.6v-91.5h27.6v-18.4H950.2L950.2,319.2z
		 M702.1,410.8h-13.7h-13.8v-36.5h13.8h13.7V410.8L702.1,410.8z M784.7,374.3h-13.8H757v-36.6h13.9h13.8V374.3L784.7,374.3z
		 M867.7,410.8h-14.1h-14v-36.5h14h14.1V410.8L867.7,410.8z"/>
	<polygon class="st0" points="890.3,282.8 775.5,282.8 775.5,301.2 890.3,301.2 890.3,282.8 	"/>
	<polygon class="st0" points="954.6,282.8 894.9,282.8 894.9,301.2 954.6,301.2 954.6,282.8 	"/>
	<polygon class="st0" points="1028.3,282.8 1005,282.8 1005,301.2 1028.3,301.2 1028.3,282.8 	"/>
	<polygon class="st0" points="1033,301.2 1042,301.2 1042,282.8 1033,282.8 1033,301.2 	"/>
	<polygon class="st0" points="1000.6,282.8 959.4,282.8 959.4,301.2 1000.6,301.2 1000.6,282.8 	"/>
	<path class="st0" d="M1047,367.5c0.6-0.3,1.8-0.9,1.8-2.7c0-1.4-0.8-3.1-3.7-3.1h-5V373h2.7v-4.3h0.6c0.3,0,0.5,0.1,0.7,0.1
		c2.9,0.3,0.7,2.6,2.2,4.2h2.8c-0.6-0.6-0.3-0.7-0.6-2.5C1048.5,369.5,1048.5,368.1,1047,367.5L1047,367.5z M1044.1,366.6h-1.3v-2.9
		h1.2c0,0,2.3-0.4,2.3,1.1C1046.2,366.4,1044.7,366.6,1044.1,366.6L1044.1,366.6z"/>
	<polygon class="st0" points="624,433.7 624,438.3 646.8,438.3 646.8,310.2 1051.3,310.2 1051.3,287.4 1046.7,287.4 1046.7,305.7 
		642.3,305.7 642.3,433.7 624,433.7 	"/>
	<polygon class="st0" points="660.7,433.7 660.7,438.3 766.4,438.3 766.4,401.7 812.4,401.7 812.4,346.8 862.9,346.8 862.9,342.2 
		807.7,342.2 807.7,397.1 761.8,397.1 761.8,433.7 660.7,433.7 	"/>
	<polygon class="st0" points="679.1,406.2 679.1,378.9 697.4,378.9 697.4,383.3 683.7,383.3 683.7,406.2 679.1,406.2 	"/>
	<polygon class="st0" points="660.7,342.2 697.4,342.2 697.4,346.8 660.7,346.8 660.7,342.2 	"/>
	<polygon class="st0" points="725.1,324 729.6,324 729.6,406.2 725.1,406.2 725.1,324 	"/>
	<polygon class="st0" points="761.8,342.2 761.8,369.7 766.4,369.7 766.4,346.8 780.2,346.8 780.2,342.2 761.8,342.2 	"/>
	<polygon class="st0" points="844.4,406.2 844.4,378.9 862.9,378.9 862.9,383.3 849.1,383.3 849.1,406.2 844.4,406.2 	"/>
	<polygon class="st0" points="890.4,406.2 894.9,406.2 894.9,324.1 890.4,324.1 890.4,406.2 	"/>
	<polygon class="st0" points="927.2,324 931.7,324 931.7,351.4 927.2,351.4 927.2,324 	"/>
	<polygon class="st0" points="945.5,378.9 927.2,378.9 927.2,433.7 826.1,433.7 826.1,438.3 931.7,438.3 931.7,383.3 945.5,383.3 
		945.5,378.9 	"/>
	<polygon class="st0" points="954.7,433.7 954.7,438.3 977.7,438.3 977.7,346.8 991.5,346.8 991.5,342.2 973.1,342.2 973.1,433.7 
		954.7,433.7 	"/>
	<polygon class="st0" points="1046.7,324 1046.7,342.2 1019.1,342.2 1019.1,433.7 1000.7,433.7 1000.7,438.3 1023.7,438.3 
		1023.7,346.8 1051.3,346.8 1051.3,324 1046.7,324 	"/>
	<path class="st0" d="M444.5,279.8c-27.1,0-49.1,22-49.1,49.1c0,27.1,22,49.1,49.1,49.1c27.1,0,49.1-22,49.1-49.1
		C493.6,301.8,471.6,279.8,444.5,279.8L444.5,279.8z M402.2,328.1c0,0-1-28.4,27-39.5C414.1,302.9,409,306.6,402.2,328.1
		L402.2,328.1z"/>
	<path class="st0" d="M327,314.7c30.8,39.7,72.1,64.1,117.5,64.1c45.5,0,86.8-24.4,117.5-64.1h16.4v122.9H375.7
		c123.7-11,181.2-98.1,187.8-115l-0.4,0.1c0,0-42.6,63.4-121,63.4c-74.8,0-113.1-57.6-116.5-63c-0.9,0.1-9.2,0-9.2,0v114.4h-5.6
		V314.7H327L327,314.7z"/>
	<polygon class="st0" points="310.6,458.9 310.6,477 310.4,479.9 310.5,479.9 311.9,477.5 323.5,458.9 326.1,458.9 326.1,483 
		323.8,483 323.8,464.9 324,462 323.8,462 322.6,464.2 310.9,483 308.3,483 308.3,458.9 310.6,458.9 	"/>
	<polygon class="st0" points="335.2,458.9 335.2,469.5 347.7,469.5 347.7,458.9 350,458.9 350,483 347.7,483 347.7,471.5 
		335.2,471.5 335.2,483 333,483 333,458.9 335.2,458.9 	"/>
	<path class="st0" d="M369.3,457.5v2.8h1.1c6.8,0,10.6,5.2,10.6,10.4c0,5.2-3.8,10.4-10.6,10.4h-1.1v2.9H367v-2.9H366
		c-6.8,0-10.6-5.2-10.6-10.4c0-5.2,3.8-10.4,10.6-10.4h1.1v-2.8H369.3L369.3,457.5z M367,462.3H366c-4.7,0-8.2,3-8.2,8.5
		c0,5.4,3.5,8.5,8.2,8.5h1.1V462.3L367,462.3z M369.3,479.2h1.1c4.7,0,8.2-3.1,8.2-8.5c0-5.4-3.5-8.5-8.2-8.5h-1.1V479.2
		L369.3,479.2z"/>
	<path class="st0" d="M395.7,458.6c7.4,0,10.9,5.9,10.9,12.3c0,7.9-4.8,12.3-10.9,12.3c-6.1,0-10.9-4.3-10.9-12.3
		C384.8,464.5,388.3,458.6,395.7,458.6L395.7,458.6z M395.7,481.3c4.2,0,8.5-3.1,8.5-10.3c0-7.2-4.2-10.4-8.5-10.4
		c-4.2,0-8.5,3.2-8.5,10.4C387.2,478.2,391.5,481.3,395.7,481.3L395.7,481.3z"/>
	<path class="st0" d="M418.2,458.9c4.5,0,7.2,2.8,7.2,6.9c0,4.1-2.7,7-7.2,7h-4V483h-2.3v-24.1H418.2L418.2,458.9z M414.2,470.9h3.5
		c1.3,0,5.2-0.3,5.2-5c0-4.9-4.6-5-5.2-5h-3.5V470.9L414.2,470.9z"/>
	<polygon class="st0" points="442.9,480.8 444,477.6 452,458.9 455.6,458.9 455.6,483 453.3,483 453.3,464.4 453.4,461.1 
		453.2,461.1 452,464.2 444.1,483 441.7,483 433.7,464.2 432.6,461.1 432.4,461.1 432.5,464.4 432.5,483 430.2,483 430.2,458.9 
		433.8,458.9 441.8,477.6 442.8,480.8 442.9,480.8 	"/>
	<path class="st0" d="M472.1,458.9l10.2,24.1h-2.5l-2.8-6.7h-12.3L462,483h-2.4l9.6-24.1H472.1L472.1,458.9z M470.5,461.1l-0.7,2.3
		l-4.4,11h10.8l-4.7-11L470.5,461.1L470.5,461.1L470.5,461.1z"/>
	<polygon class="st0" points="488.4,458.9 488.4,481 501.2,481 501.2,458.9 503.5,458.9 503.5,481 506.4,481 506.4,488.2 
		504.1,488.2 504.1,483 486.2,483 486.2,458.9 488.4,458.9 	"/>
	<polygon class="st0" points="513.5,458.9 513.5,477 513.3,479.9 513.4,479.9 514.8,477.5 526.4,458.9 529,458.9 529,483 526.7,483 
		526.7,464.9 526.9,462 526.7,462 525.6,464.2 513.8,483 511.2,483 511.2,458.9 513.5,458.9 	"/>
	<path class="st0" d="M545.2,458.6c7.4,0,10.9,5.9,10.9,12.3c0,7.9-4.8,12.3-10.9,12.3c-6.1,0-10.9-4.3-10.9-12.3
		C534.3,464.5,537.9,458.6,545.2,458.6L545.2,458.6z M545.2,481.3c4.2,0,8.5-3.1,8.5-10.3c0-7.2-4.3-10.4-8.5-10.4
		c-4.2,0-8.5,3.2-8.5,10.4C536.8,478.2,541,481.3,545.2,481.3L545.2,481.3z"/>
	<polygon class="st0" points="563.7,458.9 563.7,469.5 576.3,469.5 576.3,458.9 578.6,458.9 578.6,483 576.3,483 576.3,471.5 
		563.7,471.5 563.7,483 561.5,483 561.5,458.9 563.7,458.9 	"/>
	<polygon class="st0" points="587.7,458.9 587.7,469.5 600.2,469.5 600.2,458.9 602.5,458.9 602.5,483 600.2,483 600.2,471.5 
		587.7,471.5 587.7,483 585.5,483 585.5,458.9 587.7,458.9 	"/>
	<path class="st0" d="M618.8,458.6c7.4,0,10.9,5.9,10.9,12.3c0,7.9-4.8,12.3-10.9,12.3c-6.1,0-10.9-4.3-10.9-12.3
		C607.8,464.5,611.4,458.6,618.8,458.6L618.8,458.6z M618.8,481.3c4.2,0,8.5-3.1,8.5-10.3c0-7.2-4.3-10.4-8.5-10.4
		c-4.2,0-8.5,3.2-8.5,10.4C610.3,478.2,614.6,481.3,618.8,481.3L618.8,481.3z"/>
	<polygon class="st0" points="666.6,458.9 666.6,483 664.3,483 664.3,460.9 651.7,460.9 651.7,483 649.5,483 649.5,458.9 
		666.6,458.9 	"/>
	<path class="st0" d="M679.7,458.9c4.5,0,7.2,2.8,7.2,6.9c0,4.1-2.7,7-7.2,7h-4V483h-2.3v-24.1H679.7L679.7,458.9z M675.7,470.9h3.5
		c1.3,0,5.2-0.3,5.2-5c0-4.9-4.6-5-5.2-5h-3.5V470.9L675.7,470.9z"/>
	<path class="st0" d="M701.4,458.9l10.2,24.1h-2.5l-2.8-6.7h-12.3l-2.6,6.7h-2.5l9.6-24.1H701.4L701.4,458.9z M699.8,461.1l-0.7,2.3
		l-4.4,11h10.7l-4.6-11l-0.9-2.3H699.8L699.8,461.1z"/>
	<path class="st0" d="M721.9,458.9c5,0,7.1,2.8,7.1,6c0,2.3-1,4.4-4.2,5.4v0.1c2.9,0.5,4.9,2.8,4.9,5.7c0,6.7-6.8,6.8-8,6.8h-6.2
		v-24.1H721.9L721.9,458.9z M717.8,469.6h3.8c3.2,0,4.9-1.9,4.9-4.6c0-2.9-2.2-4.1-4.9-4.1h-3.9V469.6L717.8,469.6z M717.8,481h3.6
		c2,0,5.8-0.4,5.8-4.8c0-3-2.3-4.7-5.6-4.7h-3.9V481L717.8,481z"/>
	<path class="st0" d="M744.7,458.6c7.4,0,10.9,5.9,10.9,12.3c0,7.9-4.8,12.3-10.9,12.3c-6.1,0-10.9-4.3-10.9-12.3
		C733.8,464.5,737.3,458.6,744.7,458.6L744.7,458.6z M744.7,481.3c4.2,0,8.5-3.1,8.5-10.3c0-7.2-4.3-10.4-8.5-10.4
		c-4.2,0-8.5,3.2-8.5,10.4C736.2,478.2,740.5,481.3,744.7,481.3L744.7,481.3z"/>
	<path class="st0" d="M767.4,458.9c5,0,7.1,2.8,7.1,6c0,2.3-1,4.4-4.2,5.4v0.1c2.9,0.5,4.9,2.8,4.9,5.7c0,6.7-6.8,6.8-7.9,6.8h-6.2
		v-24.1H767.4L767.4,458.9z M763.2,469.6h3.9c3.2,0,4.9-1.9,4.9-4.6c0-2.9-2.2-4.1-4.8-4.1h-3.9V469.6L763.2,469.6z M763.2,481h3.7
		c2,0,5.8-0.4,5.8-4.8c0-3-2.4-4.7-5.6-4.7h-3.9V481L763.2,481z"/>
	<path class="st0" d="M790.2,458.6c7.3,0,10.9,5.9,10.9,12.3c0,7.9-4.8,12.3-10.9,12.3c-6.1,0-10.9-4.3-10.9-12.3
		C779.3,464.5,782.8,458.6,790.2,458.6L790.2,458.6z M790.2,481.3c4.2,0,8.4-3.1,8.4-10.3c0-7.2-4.3-10.4-8.4-10.4
		c-4.2,0-8.5,3.2-8.5,10.4C781.7,478.2,786,481.3,790.2,481.3L790.2,481.3z"/>
	<polygon class="st0" points="818.1,458.9 818.1,460.9 808.7,460.9 808.7,469.6 817.7,469.6 817.7,471.6 808.7,471.6 808.7,481 
		818.8,481 818.8,483 806.4,483 806.4,458.9 818.1,458.9 	"/>
	<path class="st0" d="M841.3,458.6c7.4,0,10.9,5.9,10.9,12.3c0,7.9-4.8,12.3-10.9,12.3c-6.1,0-10.9-4.3-10.9-12.3
		C830.4,464.5,834,458.6,841.3,458.6L841.3,458.6z M841.3,481.3c4.2,0,8.4-3.1,8.4-10.3c0-7.2-4.2-10.4-8.4-10.4
		c-4.2,0-8.5,3.2-8.5,10.4C832.9,478.2,837.1,481.3,841.3,481.3L841.3,481.3z"/>
	<path class="st0" d="M870.4,458.9v2h-10.6v8.5h4.1c7.1,0,7.8,4.8,7.8,6.7c0,4.4-3.2,6.8-8,6.8h-6.2v-24.1H870.4L870.4,458.9z
		 M859.8,481h3.5c5,0,6-2.7,6-4.9c0-2.3-1.2-4.8-6-4.8h-3.5V481L859.8,481z"/>
	<polygon class="st0" points="889,458.9 889,460.9 879.6,460.9 879.6,469.6 888.6,469.6 888.6,471.6 879.6,471.6 879.6,481 
		889.7,481 889.7,483 877.3,483 877.3,458.9 889,458.9 	"/>
	<path class="st0" d="M911.4,482.3c-1,0.3-3.6,0.9-6.7,0.9c-8.3,0-11.4-6.5-11.4-11.9c0-5.7,2.9-12.7,11.7-12.7
		c2.3,0,4.2,0.2,6.2,0.9l-0.2,2.1c-1.7-0.7-3.8-1.1-5.8-1.1c-5.8,0-9.4,4.6-9.4,10.8c0,5.5,3.6,9.9,9.3,9.9c2.2,0,4.5-0.4,6.3-1.1
		V482.3L911.4,482.3z"/>
	<polygon class="st0" points="933,458.9 933,483 930.7,483 930.7,460.9 918.2,460.9 918.2,483 915.9,483 915.9,458.9 933,458.9 	"/>
	<polygon class="st0" points="951.6,458.9 951.6,460.9 942.1,460.9 942.1,469.6 951.1,469.6 951.1,471.6 942.1,471.6 942.1,481 
		952.2,481 952.2,483 939.9,483 939.9,458.9 951.6,458.9 	"/>
	<path class="st0" d="M958.3,458.9v7.9c0,4.4,4.4,4.4,5.9,4.4c1.5,0,3-0.1,4.5-0.3l1.4-0.2v-11.8h2.3V483H970v-10.3l-1.4,0.2
		c-1.6,0.2-3.2,0.3-4.8,0.3c-7.2,0-7.8-4.1-7.8-6.3v-8H958.3L958.3,458.9z"/>
	<polygon class="st0" points="990.9,458.9 990.9,460.9 981.5,460.9 981.5,469.6 990.5,469.6 990.5,471.6 981.5,471.6 981.5,481 
		991.6,481 991.6,483 979.2,483 979.2,458.9 990.9,458.9 	"/>
	<polygon class="st0" points="999,458.9 999,469.5 1011.5,469.5 1011.5,458.9 1013.8,458.9 1013.8,483 1011.5,483 1011.5,471.5 
		999,471.5 999,483 996.7,483 996.7,458.9 999,458.9 	"/>
	<polygon class="st0" points="1022.9,458.9 1022.9,477 1022.8,479.9 1022.9,479.9 1024.3,477.5 1035.9,458.9 1038.5,458.9 
		1038.5,483 1036.2,483 1036.2,464.9 1036.4,462 1036.2,462 1035,464.2 1023.3,483 1020.7,483 1020.7,458.9 1022.9,458.9 	"/>
	<polygon class="st0" points="1057.1,458.9 1057.1,460.9 1047.6,460.9 1047.6,469.6 1056.6,469.6 1056.6,471.6 1047.6,471.6 
		1047.6,481 1057.7,481 1057.7,483 1045.4,483 1045.4,458.9 1057.1,458.9 	"/>
	<path class="st0" d="M1033.1,367.5c0,6.2,5.1,11.3,11.3,11.3c6.3,0,11.3-5.1,11.3-11.3c0-6.3-5.1-11.3-11.3-11.3
		C1038.1,356.2,1033.1,361.2,1033.1,367.5L1033.1,367.5z M1035.5,367.5c0-4.9,4-8.9,8.9-8.9c4.9,0,8.9,4,8.9,8.9
		c0,4.9-4,8.9-8.9,8.9C1039.5,376.4,1035.5,372.4,1035.5,367.5L1035.5,367.5z"/>
	<polygon class="st1" points="770.7,282.8 619.3,282.8 619.3,429.1 637.7,429.1 637.7,301.2 770.7,301.2 770.7,282.8 	"/>
	<path class="st1" d="M950.2,319.2v37h-27.8v-37h-18.1v91.5h-18.4v-91.5h-147v91.5h-18.4v-91.5h-64.2v18.4h45.8v18.6h-45.8v72.9H757
		v-36.5h46.4v-55h64.3v18.6h-46.4v72.9h101.1v-54.9h27.8v54.9h18.2v-91.5h27.4v91.5h18.6v-91.5h27.6v-18.4H950.2L950.2,319.2z
		 M702.1,410.8h-13.7h-13.8v-36.5h13.8h13.7V410.8L702.1,410.8z M784.7,374.3h-13.8H757v-36.6h13.9h13.8V374.3L784.7,374.3z
		 M867.7,410.8h-14.1h-14v-36.5h14h14.1V410.8L867.7,410.8z"/>
	<polygon class="st2" points="890.3,282.8 775.5,282.8 775.5,301.2 890.3,301.2 890.3,282.8 	"/>
	<polygon class="st2" points="954.6,282.8 894.9,282.8 894.9,301.2 954.6,301.2 954.6,282.8 	"/>
	<polygon class="st2" points="1028.3,282.8 1005,282.8 1005,301.2 1028.3,301.2 1028.3,282.8 	"/>
	<polygon class="st2" points="1033,301.2 1042,301.2 1042,282.8 1033,282.8 1033,301.2 	"/>
	<polygon class="st2" points="1000.6,282.8 959.4,282.8 959.4,301.2 1000.6,301.2 1000.6,282.8 	"/>
	<path class="st1" d="M444.5,279.8c-27.1,0-49.1,22-49.1,49.1c0,27.1,22,49.1,49.1,49.1c27.1,0,49.1-22,49.1-49.1
		C493.6,301.8,471.6,279.8,444.5,279.8L444.5,279.8z M402.2,328.1c0,0-1-28.4,27-39.5C414.1,302.9,409,306.6,402.2,328.1
		L402.2,328.1z"/>
	<path class="st2" d="M327,314.7c30.8,39.7,72.1,64.1,117.5,64.1c45.5,0,86.8-24.4,117.5-64.1h16.4v122.9H375.7
		c123.7-11,181.2-98.1,187.8-115l-0.4,0.1c0,0-42.6,63.4-121,63.4c-74.8,0-113.1-57.6-116.5-63c-0.9,0.1-9.2,0-9.2,0v114.4h-5.6
		V314.7H327L327,314.7z"/>
	<polygon class="st1" points="641.8,473.6 634.2,473.6 634.2,471.8 641.8,471.8 641.8,473.6 	"/>
	<path class="st1" d="M1047,367.5c0.6-0.3,1.8-0.9,1.8-2.7c0-1.4-0.8-3.1-3.7-3.1h-5V373h2.7v-4.3h0.6c0.3,0,0.5,0.1,0.7,0.1
		c2.9,0.3,0.7,2.6,2.2,4.2h2.8c-0.6-0.6-0.3-0.7-0.6-2.5C1048.5,369.5,1048.5,368.1,1047,367.5L1047,367.5z M1044.1,366.6h-1.3v-2.9
		h1.2c0,0,2.3-0.4,2.3,1.1C1046.2,366.4,1044.7,366.6,1044.1,366.6L1044.1,366.6z"/>
	<polygon class="st1" points="624,433.7 624,438.3 646.8,438.3 646.8,310.2 1051.3,310.2 1051.3,287.4 1046.7,287.4 1046.7,305.7 
		642.3,305.7 642.3,433.7 624,433.7 	"/>
	<polygon class="st1" points="660.7,433.7 660.7,438.3 766.4,438.3 766.4,401.7 812.4,401.7 812.4,346.8 862.9,346.8 862.9,342.2 
		807.7,342.2 807.7,397.1 761.8,397.1 761.8,433.7 660.7,433.7 	"/>
	<polygon class="st1" points="679.1,406.2 679.1,378.9 697.4,378.9 697.4,383.3 683.7,383.3 683.7,406.2 679.1,406.2 	"/>
	<polygon class="st1" points="660.7,342.2 697.4,342.2 697.4,346.8 660.7,346.8 660.7,342.2 	"/>
	<polygon class="st1" points="725.1,324 729.6,324 729.6,406.2 725.1,406.2 725.1,324 	"/>
	<polygon class="st1" points="761.8,342.2 761.8,369.7 766.4,369.7 766.4,346.8 780.2,346.8 780.2,342.2 761.8,342.2 	"/>
	<polygon class="st1" points="844.4,406.2 844.4,378.9 862.9,378.9 862.9,383.3 849.1,383.3 849.1,406.2 844.4,406.2 	"/>
	<polygon class="st1" points="890.4,406.2 894.9,406.2 894.9,324.1 890.4,324.1 890.4,406.2 	"/>
	<polygon class="st1" points="927.2,324 931.7,324 931.7,351.4 927.2,351.4 927.2,324 	"/>
	<polygon class="st1" points="945.5,378.9 927.2,378.9 927.2,433.7 826.1,433.7 826.1,438.3 931.7,438.3 931.7,383.3 945.5,383.3 
		945.5,378.9 	"/>
	<polygon class="st1" points="954.7,433.7 954.7,438.3 977.7,438.3 977.7,346.8 991.5,346.8 991.5,342.2 973.1,342.2 973.1,433.7 
		954.7,433.7 	"/>
	<polygon class="st1" points="1046.7,324 1046.7,342.2 1019.1,342.2 1019.1,433.7 1000.7,433.7 1000.7,438.3 1023.7,438.3 
		1023.7,346.8 1051.3,346.8 1051.3,324 1046.7,324 	"/>
	<polygon class="st1" points="310.6,458.9 310.6,477 310.4,479.9 310.5,479.9 311.9,477.5 323.5,458.9 326.1,458.9 326.1,483 
		323.8,483 323.8,464.9 324,462 323.8,462 322.6,464.2 310.9,483 308.3,483 308.3,458.9 310.6,458.9 	"/>
	<polygon class="st1" points="335.2,458.9 335.2,469.5 347.7,469.5 347.7,458.9 350,458.9 350,483 347.7,483 347.7,471.5 
		335.2,471.5 335.2,483 333,483 333,458.9 335.2,458.9 	"/>
	<path class="st1" d="M369.3,457.5v2.8h1.1c6.8,0,10.6,5.2,10.6,10.4c0,5.2-3.8,10.4-10.6,10.4h-1.1v2.9H367v-2.9H366
		c-6.8,0-10.6-5.2-10.6-10.4c0-5.2,3.8-10.4,10.6-10.4h1.1v-2.8H369.3L369.3,457.5z M367,462.3H366c-4.7,0-8.2,3-8.2,8.5
		c0,5.4,3.5,8.5,8.2,8.5h1.1V462.3L367,462.3z M369.3,479.2h1.1c4.7,0,8.2-3.1,8.2-8.5c0-5.4-3.5-8.5-8.2-8.5h-1.1V479.2
		L369.3,479.2z"/>
	<path class="st1" d="M395.7,458.6c7.4,0,10.9,5.9,10.9,12.3c0,7.9-4.8,12.3-10.9,12.3c-6.1,0-10.9-4.3-10.9-12.3
		C384.8,464.5,388.3,458.6,395.7,458.6L395.7,458.6z M395.7,481.3c4.2,0,8.5-3.1,8.5-10.3c0-7.2-4.2-10.4-8.5-10.4
		c-4.2,0-8.5,3.2-8.5,10.4C387.2,478.2,391.5,481.3,395.7,481.3L395.7,481.3z"/>
	<path class="st1" d="M418.2,458.9c4.5,0,7.2,2.8,7.2,6.9c0,4.1-2.7,7-7.2,7h-4V483h-2.3v-24.1H418.2L418.2,458.9z M414.2,470.9h3.5
		c1.3,0,5.2-0.3,5.2-5c0-4.9-4.6-5-5.2-5h-3.5V470.9L414.2,470.9z"/>
	<polygon class="st1" points="442.9,480.8 444,477.6 452,458.9 455.6,458.9 455.6,483 453.3,483 453.3,464.4 453.4,461.1 
		453.2,461.1 452,464.2 444.1,483 441.7,483 433.7,464.2 432.6,461.1 432.4,461.1 432.5,464.4 432.5,483 430.2,483 430.2,458.9 
		433.8,458.9 441.8,477.6 442.8,480.8 442.9,480.8 	"/>
	<path class="st1" d="M472.1,458.9l10.2,24.1h-2.5l-2.8-6.7h-12.3L462,483h-2.4l9.6-24.1H472.1L472.1,458.9z M470.5,461.1l-0.7,2.3
		l-4.4,11h10.8l-4.7-11L470.5,461.1L470.5,461.1L470.5,461.1z"/>
	<polygon class="st1" points="488.4,458.9 488.4,481 501.2,481 501.2,458.9 503.5,458.9 503.5,481 506.4,481 506.4,488.2 
		504.1,488.2 504.1,483 486.2,483 486.2,458.9 488.4,458.9 	"/>
	<polygon class="st1" points="513.5,458.9 513.5,477 513.3,479.9 513.4,479.9 514.8,477.5 526.4,458.9 529,458.9 529,483 526.7,483 
		526.7,464.9 526.9,462 526.7,462 525.6,464.2 513.8,483 511.2,483 511.2,458.9 513.5,458.9 	"/>
	<path class="st1" d="M545.2,458.6c7.4,0,10.9,5.9,10.9,12.3c0,7.9-4.8,12.3-10.9,12.3c-6.1,0-10.9-4.3-10.9-12.3
		C534.3,464.5,537.9,458.6,545.2,458.6L545.2,458.6z M545.2,481.3c4.2,0,8.5-3.1,8.5-10.3c0-7.2-4.3-10.4-8.5-10.4
		c-4.2,0-8.5,3.2-8.5,10.4C536.8,478.2,541,481.3,545.2,481.3L545.2,481.3z"/>
	<polygon class="st1" points="563.7,458.9 563.7,469.5 576.3,469.5 576.3,458.9 578.6,458.9 578.6,483 576.3,483 576.3,471.5 
		563.7,471.5 563.7,483 561.5,483 561.5,458.9 563.7,458.9 	"/>
	<polygon class="st1" points="587.7,458.9 587.7,469.5 600.2,469.5 600.2,458.9 602.5,458.9 602.5,483 600.2,483 600.2,471.5 
		587.7,471.5 587.7,483 585.5,483 585.5,458.9 587.7,458.9 	"/>
	<path class="st1" d="M618.8,458.6c7.4,0,10.9,5.9,10.9,12.3c0,7.9-4.8,12.3-10.9,12.3c-6.1,0-10.9-4.3-10.9-12.3
		C607.8,464.5,611.4,458.6,618.8,458.6L618.8,458.6z M618.8,481.3c4.2,0,8.5-3.1,8.5-10.3c0-7.2-4.3-10.4-8.5-10.4
		c-4.2,0-8.5,3.2-8.5,10.4C610.3,478.2,614.6,481.3,618.8,481.3L618.8,481.3z"/>
	<polygon class="st1" points="666.6,458.9 666.6,483 664.3,483 664.3,460.9 651.7,460.9 651.7,483 649.5,483 649.5,458.9 
		666.6,458.9 	"/>
	<path class="st1" d="M679.7,458.9c4.5,0,7.2,2.8,7.2,6.9c0,4.1-2.7,7-7.2,7h-4V483h-2.3v-24.1H679.7L679.7,458.9z M675.7,470.9h3.5
		c1.3,0,5.2-0.3,5.2-5c0-4.9-4.6-5-5.2-5h-3.5V470.9L675.7,470.9z"/>
	<path class="st1" d="M701.4,458.9l10.2,24.1h-2.5l-2.8-6.7h-12.3l-2.6,6.7h-2.5l9.6-24.1H701.4L701.4,458.9z M699.8,461.1l-0.7,2.3
		l-4.4,11h10.7l-4.6-11l-0.9-2.3H699.8L699.8,461.1z"/>
	<path class="st1" d="M721.9,458.9c5,0,7.1,2.8,7.1,6c0,2.3-1,4.4-4.2,5.4v0.1c2.9,0.5,4.9,2.8,4.9,5.7c0,6.7-6.8,6.8-8,6.8h-6.2
		v-24.1H721.9L721.9,458.9z M717.8,469.6h3.8c3.2,0,4.9-1.9,4.9-4.6c0-2.9-2.2-4.1-4.9-4.1h-3.9V469.6L717.8,469.6z M717.8,481h3.6
		c2,0,5.8-0.4,5.8-4.8c0-3-2.3-4.7-5.6-4.7h-3.9V481L717.8,481z"/>
	<path class="st1" d="M744.7,458.6c7.4,0,10.9,5.9,10.9,12.3c0,7.9-4.8,12.3-10.9,12.3c-6.1,0-10.9-4.3-10.9-12.3
		C733.8,464.5,737.3,458.6,744.7,458.6L744.7,458.6z M744.7,481.3c4.2,0,8.5-3.1,8.5-10.3c0-7.2-4.3-10.4-8.5-10.4
		c-4.2,0-8.5,3.2-8.5,10.4C736.2,478.2,740.5,481.3,744.7,481.3L744.7,481.3z"/>
	<path class="st1" d="M767.4,458.9c5,0,7.1,2.8,7.1,6c0,2.3-1,4.4-4.2,5.4v0.1c2.9,0.5,4.9,2.8,4.9,5.7c0,6.7-6.8,6.8-7.9,6.8h-6.2
		v-24.1H767.4L767.4,458.9z M763.2,469.6h3.9c3.2,0,4.9-1.9,4.9-4.6c0-2.9-2.2-4.1-4.8-4.1h-3.9V469.6L763.2,469.6z M763.2,481h3.7
		c2,0,5.8-0.4,5.8-4.8c0-3-2.4-4.7-5.6-4.7h-3.9V481L763.2,481z"/>
	<path class="st1" d="M790.2,458.6c7.3,0,10.9,5.9,10.9,12.3c0,7.9-4.8,12.3-10.9,12.3c-6.1,0-10.9-4.3-10.9-12.3
		C779.3,464.5,782.8,458.6,790.2,458.6L790.2,458.6z M790.2,481.3c4.2,0,8.4-3.1,8.4-10.3c0-7.2-4.3-10.4-8.4-10.4
		c-4.2,0-8.5,3.2-8.5,10.4C781.7,478.2,786,481.3,790.2,481.3L790.2,481.3z"/>
	<polygon class="st1" points="818.1,458.9 818.1,460.9 808.7,460.9 808.7,469.6 817.7,469.6 817.7,471.6 808.7,471.6 808.7,481 
		818.8,481 818.8,483 806.4,483 806.4,458.9 818.1,458.9 	"/>
	<path class="st1" d="M841.3,458.6c7.4,0,10.9,5.9,10.9,12.3c0,7.9-4.8,12.3-10.9,12.3c-6.1,0-10.9-4.3-10.9-12.3
		C830.4,464.5,834,458.6,841.3,458.6L841.3,458.6z M841.3,481.3c4.2,0,8.4-3.1,8.4-10.3c0-7.2-4.2-10.4-8.4-10.4
		c-4.2,0-8.5,3.2-8.5,10.4C832.9,478.2,837.1,481.3,841.3,481.3L841.3,481.3z"/>
	<path class="st1" d="M870.4,458.9v2h-10.6v8.5h4.1c7.1,0,7.8,4.8,7.8,6.7c0,4.4-3.2,6.8-8,6.8h-6.2v-24.1H870.4L870.4,458.9z
		 M859.8,481h3.5c5,0,6-2.7,6-4.9c0-2.3-1.2-4.8-6-4.8h-3.5V481L859.8,481z"/>
	<polygon class="st1" points="889,458.9 889,460.9 879.6,460.9 879.6,469.6 888.6,469.6 888.6,471.6 879.6,471.6 879.6,481 
		889.7,481 889.7,483 877.3,483 877.3,458.9 889,458.9 	"/>
	<path class="st1" d="M911.4,482.3c-1,0.3-3.6,0.9-6.7,0.9c-8.3,0-11.4-6.5-11.4-11.9c0-5.7,2.9-12.7,11.7-12.7
		c2.3,0,4.2,0.2,6.2,0.9l-0.2,2.1c-1.7-0.7-3.8-1.1-5.8-1.1c-5.8,0-9.4,4.6-9.4,10.8c0,5.5,3.6,9.9,9.3,9.9c2.2,0,4.5-0.4,6.3-1.1
		V482.3L911.4,482.3z"/>
	<polygon class="st1" points="933,458.9 933,483 930.7,483 930.7,460.9 918.2,460.9 918.2,483 915.9,483 915.9,458.9 933,458.9 	"/>
	<polygon class="st1" points="951.6,458.9 951.6,460.9 942.1,460.9 942.1,469.6 951.1,469.6 951.1,471.6 942.1,471.6 942.1,481 
		952.2,481 952.2,483 939.9,483 939.9,458.9 951.6,458.9 	"/>
	<path class="st1" d="M958.3,458.9v7.9c0,4.4,4.4,4.4,5.9,4.4c1.5,0,3-0.1,4.5-0.3l1.4-0.2v-11.8h2.3V483H970v-10.3l-1.4,0.2
		c-1.6,0.2-3.2,0.3-4.8,0.3c-7.2,0-7.8-4.1-7.8-6.3v-8H958.3L958.3,458.9z"/>
	<polygon class="st1" points="990.9,458.9 990.9,460.9 981.5,460.9 981.5,469.6 990.5,469.6 990.5,471.6 981.5,471.6 981.5,481 
		991.6,481 991.6,483 979.2,483 979.2,458.9 990.9,458.9 	"/>
	<polygon class="st1" points="999,458.9 999,469.5 1011.5,469.5 1011.5,458.9 1013.8,458.9 1013.8,483 1011.5,483 1011.5,471.5 
		999,471.5 999,483 996.7,483 996.7,458.9 999,458.9 	"/>
	<polygon class="st1" points="1022.9,458.9 1022.9,477 1022.8,479.9 1022.9,479.9 1024.3,477.5 1035.9,458.9 1038.5,458.9 
		1038.5,483 1036.2,483 1036.2,464.9 1036.4,462 1036.2,462 1035,464.2 1023.3,483 1020.7,483 1020.7,458.9 1022.9,458.9 	"/>
	<polygon class="st1" points="1057.1,458.9 1057.1,460.9 1047.6,460.9 1047.6,469.6 1056.6,469.6 1056.6,471.6 1047.6,471.6 
		1047.6,481 1057.7,481 1057.7,483 1045.4,483 1045.4,458.9 1057.1,458.9 	"/>
	<path class="st1" d="M1033.1,367.5c0,6.2,5.1,11.3,11.3,11.3c6.3,0,11.3-5.1,11.3-11.3c0-6.3-5.1-11.3-11.3-11.3
		C1038.1,356.2,1033.1,361.2,1033.1,367.5L1033.1,367.5z M1035.5,367.5c0-4.9,4-8.9,8.9-8.9c4.9,0,8.9,4,8.9,8.9
		c0,4.9-4,8.9-8.9,8.9C1039.5,376.4,1035.5,372.4,1035.5,367.5L1035.5,367.5z"/>
</g>
</svg>
